<svg xmlns="http://www.w3.org/2000/svg" xmlns:xlink="http://www.w3.org/1999/xlink" viewBox="0 0 496.13 424.84"><defs><style>.cls-1,.cls-13,.cls-14,.cls-15,.cls-16,.cls-17,.cls-18,.cls-26,.cls-28,.cls-33,.cls-34,.cls-36,.cls-40,.cls-41,.cls-42,.cls-43,.cls-44,.cls-45,.cls-47,.cls-6,.cls-68,.cls-70,.cls-71,.cls-9{fill:none;}.cls-2{isolation:isolate;}.cls-3{fill:#ebf5f7;}.cls-4{fill:#023d5f;}.cls-5{clip-path:url(#clip-path);}.cls-28,.cls-34,.cls-6{stroke:#17a59e;}.cls-13,.cls-33,.cls-44,.cls-45,.cls-47,.cls-6,.cls-68,.cls-71,.cls-72,.cls-74,.cls-9{stroke-miterlimit:10;}.cls-7{fill:#dae4e5;}.cls-8{clip-path:url(#clip-path-2);}.cls-9{stroke:#023d5f;stroke-width:2px;}.cls-10{fill:#2dc1bd;}.cls-11{fill:#17a59e;}.cls-12{clip-path:url(#clip-path-3);}.cls-13{stroke:#2dc1bd;}.cls-14,.cls-15,.cls-16,.cls-17,.cls-18,.cls-26{stroke:#63bace;}.cls-14,.cls-15,.cls-16,.cls-17,.cls-18,.cls-26,.cls-28,.cls-34,.cls-36,.cls-40,.cls-41,.cls-42,.cls-43,.cls-70{stroke-linecap:round;stroke-linejoin:round;}.cls-15{stroke-dasharray:3.04 2.54;}.cls-16{stroke-dasharray:3.04 2.53;}.cls-17{stroke-dasharray:2.92 2.43;}.cls-18{stroke-dasharray:3 2.5;}.cls-19{fill:#fdd247;}.cls-20{fill:#fcded6;}.cls-21{fill:#71606e;}.cls-21,.cls-29{opacity:0.2;}.cls-21,.cls-29,.cls-35,.cls-39,.cls-54,.cls-55{mix-blend-mode:multiply;}.cls-22{fill:#167f7f;}.cls-23{fill:#fc9549;}.cls-24{fill:#fc5e49;}.cls-25{fill:#2085b7;}.cls-26{stroke-dasharray:3 2.5;}.cls-27{fill:#fff;}.cls-30{fill:#ffb839;}.cls-31{fill:#8fd8d3;}.cls-32{fill:#b3e5e1;}.cls-33,.cls-47{stroke:#fff;}.cls-34,.cls-40,.cls-41,.cls-42,.cls-43,.cls-44,.cls-71{stroke-width:0.5px;}.cls-35,.cls-39,.cls-60{opacity:0.55;}.cls-36{stroke:#ffe1b0;stroke-width:16px;}.cls-36,.cls-61,.cls-63{mix-blend-mode:screen;}.cls-37{fill:#0c877e;}.cls-38,.cls-66{fill:#c5e6ef;}.cls-39{fill:#71c9c4;}.cls-40,.cls-41,.cls-42,.cls-43{stroke:#95c6c6;}.cls-41{stroke-dasharray:1.98 2.47;}.cls-42{stroke-dasharray:1.97 2.47;}.cls-43{stroke-dasharray:1.96 2.46;}.cls-44,.cls-45{stroke:#c5e6ef;}.cls-45,.cls-47{stroke-width:0.25px;}.cls-46{fill:#f39f86;}.cls-48{fill:#95c6c6;}.cls-49{fill:#062f44;}.cls-50{fill:#16405a;}.cls-51{fill:#103649;}.cls-52{opacity:0.5;}.cls-53{fill:#3a3a3a;}.cls-54,.cls-56{fill:#ffe7c5;}.cls-57{fill:#ffc25b;}.cls-58{fill:#ffa92c;}.cls-59{fill:#0b0b3a;}.cls-62{fill:#afd4dd;}.cls-63{fill:#ffb27e;}.cls-64{fill:#db856e;}.cls-65{fill:#ed9c80;}.cls-66{opacity:0.75;}.cls-67{fill:#94dee0;}.cls-68,.cls-71{stroke:#94dee0;}.cls-69{fill:#86d5db;}.cls-70{stroke:#ffc840;stroke-width:2.99px;}.cls-72{stroke:#e06a00;}.cls-73{fill:#e06a00;}.cls-74{stroke:#0073ad;}.cls-75{fill:#0073ad;}</style><clipPath id="clip-path" transform="translate(-2.51 -41.16)"><path class="cls-1" d="M312.05,292.24c-18.77,1-32.84,22.4-32.84,22.4s16.36,19.65,35.13,18.6,32.84-22.4,32.84-22.4S330.82,291.2,312.05,292.24Z"></path></clipPath><clipPath id="clip-path-2" transform="translate(-2.51 -41.16)"><path class="cls-1" d="M157.42,313.11c21.26,18.35,58.54,10,58.54,10s2.8-38.1-18.46-56.45-58.54-10-58.54-10S136.16,294.75,157.42,313.11Z"></path></clipPath><clipPath id="clip-path-3" transform="translate(-2.51 -41.16)"><path class="cls-1" d="M343.29,294.29c-19.27,17.46-53.23,11.37-53.23,11.37s-2.71-34.39,16.56-51.84,53.23-11.37,53.23-11.37S362.56,276.84,343.29,294.29Z"></path></clipPath></defs><title>Why should you hire us</title><g class="cls-2"><g id="OBJECT"><path class="cls-3" d="M436.13,217.68H326c-16.61,0-16.81-20.6-2.07-24.74a28.88,28.88,0,0,1,25.93,5.49s4-50.63,41.91-44.69c29.89,4.69,28.15,37.23,28.15,37.23s6.15-13.39,22.27-8.33C459,187.93,457.19,217.68,436.13,217.68Z" transform="translate(-2.51 -41.16)"></path><path class="cls-4" d="M312.05,292.24c-18.77,1-32.84,22.4-32.84,22.4s16.36,19.65,35.13,18.6,32.84-22.4,32.84-22.4S330.82,291.2,312.05,292.24Z" transform="translate(-2.51 -41.16)"></path><g class="cls-5"><line class="cls-6" x1="274.91" y1="273.51" x2="346.45" y2="269.51"></line><line class="cls-6" x1="308.08" y1="293.04" x2="290.68" y2="272.63"></line><line class="cls-6" x1="332.97" y1="291.65" x2="315.57" y2="271.24"></line><line class="cls-6" x1="303.79" y1="271.9" x2="322.63" y2="252.16"></line><line class="cls-6" x1="320.45" y1="271.03" x2="333.36" y2="257.88"></line></g><ellipse class="cls-7" cx="237.39" cy="333.19" rx="142.29" ry="18.3"></ellipse><ellipse class="cls-7" cx="379.54" cy="343.56" rx="104.41" ry="22.76"></ellipse><path class="cls-4" d="M157.42,313.11c21.26,18.35,58.54,10,58.54,10s2.8-38.1-18.46-56.45-58.54-10-58.54-10S136.16,294.75,157.42,313.11Z" transform="translate(-2.51 -41.16)"></path><g class="cls-8"><line class="cls-6" x1="215.42" y1="283.77" x2="134.36" y2="213.82"></line><line class="cls-6" x1="200.03" y1="228.36" x2="197.55" y2="268.35"></line><line class="cls-6" x1="171.83" y1="204.03" x2="169.36" y2="244.02"></line><line class="cls-6" x1="182.7" y1="255.54" x2="141.96" y2="257.2"></line><line class="cls-6" x1="163.89" y1="239.17" x2="136.36" y2="239.91"></line></g><path class="cls-3" d="M110.22,297.41H13.73c-14.55,0-14.73-16.54-1.82-19.87a26.92,26.92,0,0,1,22.71,4.41s3.5-40.66,36.72-35.89C97.53,249.82,96,276,96,276s5.39-10.76,19.51-6.69C130.26,273.52,128.66,297.41,110.22,297.41Z" transform="translate(-2.51 -41.16)"></path><path class="cls-3" d="M132,127.53h77.66c11.71,0,11.86-13.32,1.46-16a21.67,21.67,0,0,0-18.28,3.55S190,82.35,163.27,86.19c-21.08,3-19.85,24.07-19.85,24.07s-4.34-8.66-15.71-5.38C115.85,108.3,117.14,127.53,132,127.53Z" transform="translate(-2.51 -41.16)"></path><ellipse class="cls-7" cx="96.91" cy="326.66" rx="46.44" ry="6.53"></ellipse><line class="cls-9" x1="68.04" y1="327.14" x2="82.67" y2="174.1"></line><line class="cls-9" x1="126.36" y1="327.14" x2="111.73" y2="174.1"></line><line class="cls-9" x1="81.51" y1="186.3" x2="112.9" y2="186.3"></line><line class="cls-9" x1="79.75" y1="204.67" x2="114.65" y2="204.67"></line><line class="cls-9" x1="77.99" y1="223.04" x2="116.41" y2="223.04"></line><line class="cls-9" x1="76.24" y1="241.4" x2="118.16" y2="241.4"></line><line class="cls-9" x1="74.48" y1="259.77" x2="119.86" y2="259.77"></line><line class="cls-9" x1="72.73" y1="278.14" x2="121.62" y2="278.14"></line><line class="cls-9" x1="70.97" y1="296.51" x2="123.42" y2="296.51"></line><line class="cls-9" x1="69.22" y1="314.87" x2="124.6" y2="314.87"></line><path class="cls-10" d="M116.14,216.18H83.28a1.9,1.9,0,0,1-1.9-1.9h0a1.9,1.9,0,0,1,1.9-1.9h32.86a1.9,1.9,0,0,1,1.9,1.9h0A1.9,1.9,0,0,1,116.14,216.18Z" transform="translate(-2.51 -41.16)"></path><path class="cls-11" d="M343.29,294.29c-19.27,17.46-53.23,11.37-53.23,11.37s-2.71-34.39,16.56-51.84,53.23-11.37,53.23-11.37S362.56,276.84,343.29,294.29Z" transform="translate(-2.51 -41.16)"></path><g class="cls-12"><line class="cls-13" x1="285.78" y1="266.22" x2="359.24" y2="199.69"></line><line class="cls-13" x1="299.55" y1="215.44" x2="301.98" y2="251.55"></line><line class="cls-13" x1="325.1" y1="192.3" x2="327.53" y2="228.41"></line><line class="cls-13" x1="315.43" y1="239.37" x2="352.51" y2="239.27"></line><line class="cls-13" x1="332.48" y1="223.81" x2="357.53" y2="223.4"></line></g><line class="cls-14" x1="225.04" y1="325.27" x2="225.04" y2="326.77"></line><path class="cls-15" d="M227.55,370.47v5.34a16.84,16.84,0,0,1-16.84,16.84H181.94a10.06,10.06,0,0,1-10.06-10.06V370.91" transform="translate(-2.51 -41.16)"></path><line class="cls-14" x1="169.37" y1="328.48" x2="169.37" y2="326.98"></line><line class="cls-14" x1="124.5" y1="328.84" x2="124.5" y2="330.34"></line><path class="cls-16" d="M127,374v14.76a19.63,19.63,0,0,0,19.63,19.63h62.2A29.15,29.15,0,0,0,238,379.27V356" transform="translate(-2.51 -41.16)"></path><line class="cls-14" x1="235.48" y1="313.53" x2="235.48" y2="312.03"></line><path class="cls-1" d="M170.81,408.42" transform="translate(-2.51 -41.16)"></path><line class="cls-14" x1="139.73" y1="328.84" x2="139.73" y2="330.34"></line><path class="cls-17" d="M142.24,373.94v14.86a19.63,19.63,0,0,0,19.63,19.63h22.64" transform="translate(-2.51 -41.16)"></path><line class="cls-14" x1="183.21" y1="367.26" x2="184.71" y2="367.26"></line><line class="cls-14" x1="154.41" y1="328.84" x2="154.41" y2="330.34"></line><path class="cls-18" d="M156.93,374v14.79a19.63,19.63,0,0,0,19.63,19.63h24.56" transform="translate(-2.51 -41.16)"></path><line class="cls-14" x1="199.85" y1="367.26" x2="201.35" y2="367.26"></line><polygon class="cls-19" points="129.86 269.56 129.86 336.21 119.14 336.23 118.91 269.58 129.86 269.56"></polygon><polygon class="cls-20" points="124.26 255.08 125.35 256.63 129.86 269.56 118.92 269.58 123.21 256.58 124.26 255.08"></polygon><polygon class="cls-19" points="124.26 255.08 125.35 256.63 124.77 256.99 124.26 256.58 123.7 257.14 123.21 256.58 124.26 255.08"></polygon><polygon class="cls-20" points="118.92 269.58 120.49 270.76 121.6 269.57 118.92 269.58"></polygon><polygon class="cls-20" points="121.6 269.57 123.17 270.75 124.28 269.57 121.6 269.57"></polygon><polygon class="cls-20" points="124.28 269.57 125.85 270.75 126.96 269.57 124.28 269.57"></polygon><polygon class="cls-20" points="126.96 269.57 128.53 270.75 129.86 269.56 126.96 269.57"></polygon><polygon class="cls-21" points="124.26 255.08 125.35 256.63 129.86 269.56 129.86 336.21 126.39 336.21 126.16 269.56 122.7 258.12 123.21 256.58 124.26 255.08"></polygon><rect class="cls-22" x="119.14" y="335.5" width="10.73" height="1.97"></rect><polygon class="cls-23" points="144.89 269.56 144.89 336.21 134.17 336.23 133.94 269.58 144.89 269.56"></polygon><polygon class="cls-20" points="139.29 255.08 140.38 256.63 144.89 269.56 133.95 269.58 138.24 256.58 139.29 255.08"></polygon><polygon class="cls-23" points="139.29 255.08 140.38 256.63 139.8 256.99 139.29 256.58 138.74 257.14 138.24 256.58 139.29 255.08"></polygon><polygon class="cls-20" points="133.95 269.58 135.52 270.76 136.63 269.57 133.95 269.58"></polygon><polygon class="cls-20" points="136.63 269.57 138.2 270.75 139.31 269.57 136.63 269.57"></polygon><polygon class="cls-20" points="139.31 269.57 140.88 270.75 141.99 269.57 139.31 269.57"></polygon><polygon class="cls-20" points="141.99 269.57 143.56 270.75 144.89 269.56 141.99 269.57"></polygon><polygon class="cls-21" points="139.29 255.08 140.38 256.63 144.89 269.56 144.89 336.21 141.42 336.21 141.19 269.56 137.73 258.12 138.24 256.58 139.29 255.08"></polygon><rect class="cls-22" x="134.17" y="335.5" width="10.73" height="1.97"></rect><polygon class="cls-24" points="159.92 269.56 159.92 336.21 149.2 336.23 148.97 269.58 159.92 269.56"></polygon><polygon class="cls-20" points="154.32 255.08 155.41 256.63 159.92 269.56 148.98 269.58 153.27 256.58 154.32 255.08"></polygon><polygon class="cls-24" points="154.32 255.08 155.41 256.63 154.84 256.99 154.32 256.58 153.77 257.14 153.27 256.58 154.32 255.08"></polygon><polygon class="cls-20" points="148.98 269.58 150.55 270.76 151.66 269.57 148.98 269.58"></polygon><polygon class="cls-20" points="151.66 269.57 153.23 270.75 154.34 269.57 151.66 269.57"></polygon><polygon class="cls-20" points="154.34 269.57 155.91 270.75 157.02 269.57 154.34 269.57"></polygon><polygon class="cls-20" points="157.02 269.57 158.59 270.75 159.92 269.56 157.02 269.57"></polygon><polygon class="cls-21" points="154.32 255.08 155.41 256.63 159.92 269.56 159.93 336.21 156.45 336.21 156.22 269.56 152.76 258.12 153.27 256.58 154.32 255.08"></polygon><rect class="cls-22" x="149.2" y="335.5" width="10.73" height="1.97"></rect><polygon class="cls-25" points="174.95 269.56 174.95 336.21 164.23 336.23 164 269.58 174.95 269.56"></polygon><polygon class="cls-20" points="169.35 255.08 170.44 256.63 174.95 269.56 164.01 269.58 168.3 256.58 169.35 255.08"></polygon><polygon class="cls-25" points="169.35 255.08 170.44 256.63 169.87 256.99 169.35 256.58 168.8 257.14 168.3 256.58 169.35 255.08"></polygon><polygon class="cls-20" points="164.01 269.58 165.58 270.76 166.69 269.57 164.01 269.58"></polygon><polygon class="cls-20" points="166.69 269.57 168.26 270.75 169.37 269.57 166.69 269.57"></polygon><polygon class="cls-20" points="169.37 269.57 170.94 270.75 172.05 269.57 169.37 269.57"></polygon><polygon class="cls-20" points="172.05 269.57 173.62 270.75 174.95 269.56 172.05 269.57"></polygon><polygon class="cls-21" points="169.35 255.08 170.44 256.63 174.95 269.56 174.96 336.21 171.48 336.21 171.25 269.56 167.79 258.12 168.3 256.58 169.35 255.08"></polygon><rect class="cls-22" x="164.23" y="335.5" width="10.73" height="1.97"></rect><path class="cls-26" d="M424.14,399.83H492a6.18,6.18,0,0,1,6.18,6.18h0a6.18,6.18,0,0,1-6.18,6.18H278.47a20.31,20.31,0,0,1-20.31-20.31V367.82" transform="translate(-2.51 -41.16)"></path><path class="cls-26" d="M245.19,370.87v41a20.54,20.54,0,0,1-20.54,20.54h-7.22" transform="translate(-2.51 -41.16)"></path><path class="cls-26" d="M271.89,358.9v17a12.31,12.31,0,0,0,12.31,12.31h74.25" transform="translate(-2.51 -41.16)"></path><path class="cls-19" d="M327.3,142.64c-17.61-21.8-43.8-37.27-72.37-37.77-16.53-.29-33.94,1.9-48.7,9.78a110.09,110.09,0,0,0-33.42,28c-15.78,19.53-24.87,45-22.14,70,2.28,20.84,12.58,40,26.19,55.6,13.27,15.26,32.62,27.85,35.93,49.4.95,6.15-1.32,14.66,3.37,19.58,5.59,5.86,14.66,3.82,21.81,3.76q12.76-.1,25.52-.16c6.1,0,15.85,1.66,20.45-3.6,4.69-4.92,2.43-13.43,3.37-19.58,2.5-16.24,15.16-29.39,26.81-40,13.38-12.14,24-26.1,29.95-43.33C355.13,202.41,348.37,168.73,327.3,142.64Z" transform="translate(-2.51 -41.16)"></path><path class="cls-27" d="M244.7,359.56c-.1-10.34-.65-20.67-1-31-.65-17.43-1.46-34.9-3-52.27-.91-10.21-2.26-20.25-5.65-30-2.34-6.72-6.33-15.5-13.84-17.72a10,10,0,0,0-12.46,7.23c-1.74,8,5.94,15.33,12.7,17.91,7.81,3,19.06,1.52,26-3.13,7.64-5.14,12-14.22,13.3-23.13,1-6.8,1-14.55-6.28-17.59-6.38-2.65-11.5,2.51-12.1,8.72-.62,6.45,1.16,13.43,3.63,19.33s6.6,12.41,13.18,14.12c9.36,2.43,20.15-3.08,26.56-9.58,4.68-4.74,12.65-15.17,6.49-21.69-2.85-3-7.55-3.31-11.17-1.69-4.78,2.14-8.17,6.88-10.86,11.2-6,9.59-8.7,20.82-9.62,32-1.06,12.91-1.26,25.94-1.69,38.88-.42,12.58-.73,25.17-1,37.76-.17,6.71-.22,13.42-.32,20.13a.77.77,0,0,0,1.55,0c1.1-22.14,1.55-44.31,2.38-66.46.42-11.16.43-22.51,1.74-33.61,1.2-10.19,4.17-20.32,9.9-28.91,2.71-4.06,6.59-9.29,11.91-9.64s7.87,4,6.62,8.76c-2.15,8.11-10,15.35-17.48,18.64-4.26,1.88-9.74,3.24-14.37,2.06a14.08,14.08,0,0,1-7-4.81c-4.19-4.94-6.45-11.57-7.61-17.86-.86-4.7-1.89-12.58,3.37-15.28,2.71-1.39,6,0,8,2,2.58,2.49,2.53,5.94,2.39,9.32-.34,8.42-3.52,17.27-9.7,23.17s-16.12,7.7-24.29,6.1c-6.76-1.33-16.13-8.63-14-16.54,1.51-5.56,7.94-6.83,12.32-4,7.4,4.78,10.2,15.4,12.19,23.36s2.69,15.87,3.37,23.9c2.2,26.17,3,52.42,4.77,78.61l.12,1.79a.52.52,0,0,0,1,0Z" transform="translate(-2.51 -41.16)"></path><rect class="cls-11" x="218.15" y="299.47" width="57.65" height="5.69"></rect><path class="cls-10" d="M281.64,366a3.35,3.35,0,0,1,.1-4.28l.36-.38a3.36,3.36,0,0,0,.15-4.22l-.58-.73a3.34,3.34,0,0,1,.26-4.34,3.34,3.34,0,0,0,.31-4.28l-1.54-2.06a3,3,0,0,0-2.38-1.19H221a3,3,0,0,0-2.38,1.19l-1.54,2.06a3.34,3.34,0,0,0,.31,4.28,3.34,3.34,0,0,1,.26,4.34l-.58.73a3.36,3.36,0,0,0,.15,4.22l.36.38a3.35,3.35,0,0,1,.1,4.28l-.46.55a3.35,3.35,0,0,0,.16,4.34l.24.24A6.17,6.17,0,0,0,222,373h55.33a6.17,6.17,0,0,0,4.36-1.89l.24-.24a3.35,3.35,0,0,0,.16-4.34Z" transform="translate(-2.51 -41.16)"></path><line class="cls-28" x1="249.54" y1="311.06" x2="276.24" y2="311.06"></line><line class="cls-28" x1="222.84" y1="311.06" x2="237.64" y2="311.06"></line><line class="cls-28" x1="218.97" y1="317.6" x2="257.66" y2="317.6"></line><line class="cls-28" x1="264.92" y1="317.6" x2="276.33" y2="317.6"></line><line class="cls-28" x1="222.84" y1="324.14" x2="243.54" y2="324.14"></line><line class="cls-28" x1="257.08" y1="324.14" x2="265.4" y2="324.14"></line><line class="cls-28" x1="241.35" y1="311.06" x2="244.34" y2="311.06"></line><g class="cls-29"><path class="cls-30" d="M327.3,142.64c-17.61-21.8-43.8-37.27-72.37-37.77-3.26-.06-6.55,0-9.85.15,45.75,2.8,85.38,42.56,83.88,90.4-1.26,40.22-20.9,68.9-61.51,86.48-8.5,3.68-14.6,9.29-15.95,19-1.25,9,1.59,18.11-.28,27.09a7.58,7.58,0,0,1-1.66,3.75,8.23,8.23,0,0,1-3.33,1.87,60.06,60.06,0,0,1-31.25,2,9.23,9.23,0,0,0,1.18,1.57c5.59,5.86,14.66,3.82,21.81,3.76q12.76-.1,25.52-.16c6.1,0,15.85,1.66,20.45-3.6,4.69-4.92,2.43-13.43,3.37-19.58,2.5-16.24,15.16-29.39,26.81-40,13.38-12.14,24-26.1,29.95-43.33C355.13,202.41,348.37,168.73,327.3,142.64Z" transform="translate(-2.51 -41.16)"></path></g><path class="cls-10" d="M486.47,378.54s-8.88-6.3-16.05-7.32c-14.11-2-22.17,3.57-29.79-.71-3.16-1.77,4.68-3,5.5-5a26.64,26.64,0,0,0,0-3,4.9,4.9,0,0,1-3.72.13C428.17,357.51,416,358,395.29,358c-46.39,0-84.68,8.35-90.32,19.14h-.72V380h0c.27,12,40.92,21.78,91,21.78,48.37,0,90.68-9.29,91.17-20.56Zm-59.9,1.32c-6.56,0-11.88-1.92-11.88-4.28s5.32-4.28,11.88-4.28,11.88,1.92,11.88,4.28S433.14,379.86,426.57,379.86Z" transform="translate(-2.51 -41.16)"></path><path class="cls-31" d="M486.33,377.37c-1.21-4.81-8.73-7.66-15.91-8.69-14.11-2-22.17,3.57-29.79-.71-4.44-2.49,12.86-3.87,1.83-7.85-14.29-5.15-26.42-4.66-47.16-4.66-50.28,0-91,9.8-91,21.9s40.76,21.9,91,21.9S489.3,389.24,486.33,377.37Zm-59.76,0c-6.56,0-11.88-1.92-11.88-4.28s5.32-4.28,11.88-4.28,11.88,1.92,11.88,4.28S433.14,377.32,426.57,377.32Z" transform="translate(-2.51 -41.16)"></path><path class="cls-23" d="M354.49,379.74A5.36,5.36,0,0,0,353,378.1a16.21,16.21,0,0,0-4.58-2.53.83.83,0,0,0,.3-1.12,1.81,1.81,0,0,0-1-.78,12.37,12.37,0,0,0-5.62-.55,84.49,84.49,0,0,0-11.37,1.15c-1.75.34-3.7,1-4.46,2.7a3.45,3.45,0,0,0-.19,2.18,5.16,5.16,0,0,1-1.4.41c-.47.15-.94.61-.8,1.11a1.16,1.16,0,0,0,.33.48c3.51,3.55,8.63,4.38,13.26,4.4a48.77,48.77,0,0,0,15-2.17,3.26,3.26,0,0,0,2.08-1.42A2.51,2.51,0,0,0,354.49,379.74Z" transform="translate(-2.51 -41.16)"></path><path class="cls-24" d="M389.49,367.73a5.36,5.36,0,0,0-1.51-1.65,16.21,16.21,0,0,0-4.58-2.53.83.83,0,0,0,.3-1.12,1.81,1.81,0,0,0-1-.78,12.37,12.37,0,0,0-5.62-.55,84.49,84.49,0,0,0-11.37,1.15c-1.75.34-3.7,1-4.46,2.7a3.45,3.45,0,0,0-.19,2.18,5.16,5.16,0,0,1-1.4.41c-.47.15-.94.61-.8,1.11a1.16,1.16,0,0,0,.33.48c3.51,3.55,8.63,4.38,13.26,4.4a48.77,48.77,0,0,0,15-2.17,3.26,3.26,0,0,0,2.08-1.42A2.51,2.51,0,0,0,389.49,367.73Z" transform="translate(-2.51 -41.16)"></path><path class="cls-25" d="M452.78,385.51a4.59,4.59,0,0,0-1.29-1.41,13.88,13.88,0,0,0-3.92-2.16.71.71,0,0,0,.26-1,1.55,1.55,0,0,0-.83-.67,10.59,10.59,0,0,0-4.81-.47,72.33,72.33,0,0,0-9.73,1c-1.5.29-3.17.83-3.82,2.31a3,3,0,0,0-.16,1.87,4.42,4.42,0,0,1-1.19.35c-.4.13-.8.52-.68.95a1,1,0,0,0,.28.41c3,3,7.39,3.75,11.36,3.77a41.76,41.76,0,0,0,12.88-1.85,2.79,2.79,0,0,0,1.78-1.21A2.15,2.15,0,0,0,452.78,385.51Z" transform="translate(-2.51 -41.16)"></path><path class="cls-19" d="M404.15,385.57a5.36,5.36,0,0,0-1.51-1.65,16.21,16.21,0,0,0-4.58-2.53.83.83,0,0,0,.3-1.12,1.81,1.81,0,0,0-1-.78,12.37,12.37,0,0,0-5.62-.55,84.49,84.49,0,0,0-11.37,1.15c-1.75.34-3.7,1-4.46,2.7a3.45,3.45,0,0,0-.19,2.18,5.16,5.16,0,0,1-1.4.41c-.47.15-.94.61-.8,1.11a1.16,1.16,0,0,0,.33.48c3.51,3.55,8.63,4.38,13.26,4.4a48.77,48.77,0,0,0,15-2.17,3.26,3.26,0,0,0,2.08-1.42A2.51,2.51,0,0,0,404.15,385.57Z" transform="translate(-2.51 -41.16)"></path><ellipse class="cls-7" cx="87.29" cy="397.54" rx="37.04" ry="4.35"></ellipse><path class="cls-32" d="M50,423.23c-3.66-7.21-4.65-15.92-1.41-23.5,1.87-4.38,4.5-8.71,8.32-11.67a31.75,31.75,0,0,1,11.31-5.5c7-1.85,14.78-1.24,21,2.42,5.22,3.06,9,8,11.55,13.45s3.49,11.87,8.77,15.28c1.51,1,4,1.38,4.76,3.2.88,2.16-.72,4.31-1.58,6.18l-3.05,6.7c-.73,1.6-1.43,4.37-3.36,5s-3.82-.94-5.55-1.42c-4.57-1.26-9.52.53-13.68,2.35a30.17,30.17,0,0,1-14.94,2.78A27.34,27.34,0,0,1,50,423.23Z" transform="translate(-2.51 -41.16)"></path><path class="cls-33" d="M113.12,425.24S98.4,418,91.37,414A32,32,0,0,1,85,409.61c-1.65-1.47-5-4.94-2.85-7.23,2.53-2.7,5.51,1.71,5.49,4.17a9.37,9.37,0,0,1-3.44,6.2c-3,2.09-7.5,1.56-10.32-.18a2.35,2.35,0,0,1,1.45-4.33c2.28.15,8.71,5,7.23,8.83a8.74,8.74,0,0,1-4.38,4.6c-3.52,1.72-8.09-2.75-3.14-4.34,3.52-1.13,8,.09,11.31,1.37,9,3.51,16,6.5,25,10.18" transform="translate(-2.51 -41.16)"></path><rect class="cls-11" x="103.71" y="425.6" width="16.63" height="1.64" transform="translate(544.47 457.3) rotate(114.12)"></rect><path class="cls-10" d="M114.16,437.54a1,1,0,0,0-1.14-.48l-.14,0a1,1,0,0,1-1.13-.46l-.12-.24a1,1,0,0,0-1.17-.44,1,1,0,0,1-1.16-.42l-.36-.65a.86.86,0,0,1,0-.77L115.65,419a.86.86,0,0,1,.6-.49l.72-.16a1,1,0,0,1,1.09.59,1,1,0,0,0,1.11.58l.26-.07a1,1,0,0,1,1.09.54l.06.14a1,1,0,0,0,1.11.53l.2-.06a1,1,0,0,1,1.12.55l0,.09a1.78,1.78,0,0,1,0,1.37l-6.52,14.57a1.78,1.78,0,0,1-1,.92l-.09,0a1,1,0,0,1-1.16-.47Z" transform="translate(-2.51 -41.16)"></path><line class="cls-34" x1="111.51" y1="386.96" x2="108.36" y2="393.99"></line><line class="cls-34" x1="114.66" y1="379.93" x2="112.91" y2="383.83"></line><line class="cls-34" x1="116.84" y1="379.68" x2="112.28" y2="389.87"></line><line class="cls-34" x1="111.42" y1="391.78" x2="110.07" y2="394.79"></line><line class="cls-34" x1="118.1" y1="381.47" x2="115.66" y2="386.92"></line><line class="cls-34" x1="114.07" y1="390.49" x2="113.08" y2="392.68"></line><line class="cls-34" x1="112.48" y1="384.8" x2="112.12" y2="385.59"></line><g class="cls-35"><path class="cls-32" d="M50,423.23c-3.66-7.21-4.65-15.92-1.41-23.5.37-.86.77-1.73,1.2-2.58-4.66,12.37,1.14,27.49,13.91,32.74,10.74,4.41,20.6,2.62,30-6,2-1.8,4.17-2.75,6.89-2,2.52.73,4.58,2.55,7.16,3.12a2.19,2.19,0,0,0,1.18,0,2.38,2.38,0,0,0,.88-.66,17.32,17.32,0,0,0,4.2-8,2.65,2.65,0,0,1,.27.5c.88,2.16-.72,4.31-1.58,6.18l-3.05,6.7c-.73,1.6-1.43,4.37-3.36,5s-3.82-.94-5.55-1.42c-4.57-1.26-9.52.53-13.68,2.35a30.17,30.17,0,0,1-14.94,2.78A27.34,27.34,0,0,1,50,423.23Z" transform="translate(-2.51 -41.16)"></path></g><ellipse class="cls-7" cx="369.26" cy="388.89" rx="29.08" ry="3.42"></ellipse><path class="cls-32" d="M401.48,419.94c2.83-5.29,3.69-11.74,1.4-17.41a21.4,21.4,0,0,0-6-8.78,23.56,23.56,0,0,0-8.3-4.25A20.69,20.69,0,0,0,373,391a22.12,22.12,0,0,0-8.77,9.8c-1.9,3.89-2.77,8.75-6.74,11.2-1.13.7-3,1-3.58,2.3-.69,1.59.47,3.21,1.08,4.61l2.16,5c.52,1.2,1,3.26,2.42,3.73s2.85-.64,4.14-1c3.41-.86,7.05.53,10.11,1.95a22.38,22.38,0,0,0,11,2.29A20.28,20.28,0,0,0,401.48,419.94Z" transform="translate(-2.51 -41.16)"></path><path class="cls-33" d="M354.62,420.47s11-5.16,16.31-8a23.67,23.67,0,0,0,4.81-3.18c3.21-2.75,3-4.87,1.62-5.66-1.68-1-3.53.88-3.56,3.38a7,7,0,0,0,2.46,4.65c2.16,1.6,5.54,1.27,7.66,0,1.06-.63,1.41-3.34-1-3.24-1.69.08-6.53,3.55-5.49,6.44a6.48,6.48,0,0,0,3.19,3.48,6.88,6.88,0,0,0,4.36.55c2.47-.75-.17-3.23-1.51-3.6a14.57,14.57,0,0,0-8.87.72c-6.75,2.46-12,4.58-18.68,7.17" transform="translate(-2.51 -41.16)"></path><rect class="cls-11" x="349.25" y="420.75" width="12.34" height="1.22" transform="translate(602.35 -111.38) rotate(67.05)"></rect><path class="cls-10" d="M353.66,429.58a.72.72,0,0,1,.85-.34l.11,0a.72.72,0,0,0,.84-.32l.1-.18a.72.72,0,0,1,.88-.31.72.72,0,0,0,.87-.3l.28-.48a.64.64,0,0,0,0-.57l-4.78-11.29a.64.64,0,0,0-.43-.37l-.53-.13a.72.72,0,0,0-.82.42.71.71,0,0,1-.83.41l-.19-.05a.72.72,0,0,0-.82.38l0,.1a.72.72,0,0,1-.83.38l-.15,0a.72.72,0,0,0-.84.39l0,.07a1.32,1.32,0,0,0,0,1l4.62,10.9a1.32,1.32,0,0,0,.74.7l.07,0a.72.72,0,0,0,.87-.33Z" transform="translate(-2.51 -41.16)"></path><line class="cls-34" x1="351.4" y1="381.43" x2="353.62" y2="386.69"></line><line class="cls-34" x1="349.17" y1="376.17" x2="350.4" y2="379.09"></line><line class="cls-34" x1="347.56" y1="375.96" x2="350.79" y2="383.58"></line><line class="cls-34" x1="351.39" y1="385.01" x2="352.34" y2="387.26"></line><line class="cls-34" x1="346.59" y1="377.26" x2="348.32" y2="381.34"></line><line class="cls-34" x1="349.45" y1="384.01" x2="350.14" y2="385.65"></line><line class="cls-34" x1="350.71" y1="379.82" x2="350.96" y2="380.41"></line><g class="cls-35"><path class="cls-32" d="M401.48,419.94c2.83-5.29,3.69-11.74,1.4-17.41-.26-.65-.54-1.29-.85-1.93,3.26,9.25-1.26,20.37-10.81,24.07-8,3.11-15.32,1.63-22.17-4.9a5.07,5.07,0,0,0-5.08-1.55c-1.88.5-3.44,1.82-5.36,2.21a1.62,1.62,0,0,1-.88,0,1.76,1.76,0,0,1-.65-.5,12.85,12.85,0,0,1-3-6,2,2,0,0,0-.21.36c-.69,1.59.47,3.21,1.08,4.61l2.16,5c.52,1.2,1,3.26,2.42,3.73s2.85-.64,4.14-1c3.41-.86,7.05.53,10.11,1.95a22.38,22.38,0,0,0,11,2.29A20.28,20.28,0,0,0,401.48,419.94Z" transform="translate(-2.51 -41.16)"></path></g><path class="cls-36" d="M183.88,160.81C175.52,172,167.57,186,167.76,211.64" transform="translate(-2.51 -41.16)"></path><path class="cls-36" d="M206.81,137.2a17.44,17.44,0,0,0-4.23,3.93" transform="translate(-2.51 -41.16)"></path><ellipse class="cls-7" cx="184.93" cy="417.81" rx="38.58" ry="7.02"></ellipse><path class="cls-37" d="M212.9,442.79H179.21L196,437.31h34.16l-.13.36-16.24,5A2.94,2.94,0,0,1,212.9,442.79Z" transform="translate(-2.51 -41.16)"></path><path class="cls-38" d="M212.45,442.21H179.53L196,437.31h33.4l-16.05,4.76A2.94,2.94,0,0,1,212.45,442.21Z" transform="translate(-2.51 -41.16)"></path><path class="cls-39" d="M209.77,441.39H187.92l10.95-3.26H221l-10.65,3.16A2,2,0,0,1,209.77,441.39Z" transform="translate(-2.51 -41.16)"></path><path class="cls-37" d="M230.18,437.31H196l4.31-18.89a1.61,1.61,0,0,1,1.56-1h30.8a1.48,1.48,0,0,1,1.54,1.86Z" transform="translate(-2.51 -41.16)"></path><path class="cls-11" d="M229.42,437.31H196l4.31-18.89a1.61,1.61,0,0,1,1.56-1h30a1.48,1.48,0,0,1,1.54,1.86Z" transform="translate(-2.51 -41.16)"></path><path class="cls-38" d="M227.94,436.13H197.81l3.88-17.58h30.13Z" transform="translate(-2.51 -41.16)"></path><polyline class="cls-40" points="222.21 391.69 222 392.67 221 392.67"></polyline><line class="cls-41" x1="218.53" y1="392.67" x2="201.98" y2="392.67"></line><polyline class="cls-40" points="200.75 392.67 199.75 392.67 199.96 391.69"></polyline><path class="cls-42" d="M203,430.45l2.12-9.59h20" transform="translate(-2.51 -41.16)"></path><polyline class="cls-40" points="223.86 379.68 224.86 379.68 224.65 380.66"></polyline><line class="cls-43" x1="224.12" y1="383.06" x2="222.48" y2="390.49"></line><line class="cls-44" x1="185.41" y1="399.33" x2="212.81" y2="399.33"></line><line class="cls-45" x1="190.46" y1="397.93" x2="217.87" y2="397.93"></line><path class="cls-46" d="M185.08,438.75c1.15-.95,3.16-1.17,4.63-1.38a24.19,24.19,0,0,1,4.46-.06c.86,0,.64,1-.1,1.16a8.61,8.61,0,0,1-2.55,0,4.08,4.08,0,0,1-2.25,1.49,9.16,9.16,0,0,1-2.72.26c-.26,0-.58-.07-.63-.32" transform="translate(-2.51 -41.16)"></path><line class="cls-47" x1="218.56" y1="386.25" x2="212.29" y2="379.99"></line><circle class="cls-27" cx="221.22" cy="427.57" r="0.3" transform="translate(-240.06 240.5) rotate(-45)"></circle><circle class="cls-27" cx="218.87" cy="429.71" r="0.3" transform="translate(-242.28 239.52) rotate(-45.01)"></circle><circle class="cls-27" cx="212.36" cy="423.2" r="0.3" transform="translate(-239.56 232.95) rotate(-45)"></circle><circle class="cls-27" cx="214.8" cy="421.15" r="0.3" transform="translate(-237.4 234.08) rotate(-45)"></circle><path class="cls-47" d="M212.36,423.2a4.92,4.92,0,0,1,6.51,6.51" transform="translate(-2.51 -41.16)"></path><path class="cls-27" d="M213.8,424.83l4-.63-3.11,3.36a.91.91,0,1,0,0,1.3.91.91,0,0,0,0-1.3h0l3.27-3.21s-.48,2.79-.64,4.18a50.88,50.88,0,0,0-4.9,3c-.16.12-1.85-1.64-1.78-1.73C211.74,428.46,213.8,424.83,213.8,424.83Z" transform="translate(-2.51 -41.16)"></path><path class="cls-27" d="M209.43,429.65l.68-.68a.33.33,0,0,1,.46,0l2.73,2.73a.32.32,0,0,1,0,.44l0,0-.68.68a.32.32,0,0,1-.46,0l-2.73-2.73A.33.33,0,0,1,209.43,429.65Z" transform="translate(-2.51 -41.16)"></path><circle class="cls-48" cx="202.82" cy="379.66" r="0.97"></circle><circle class="cls-48" cx="199.75" cy="392.67" r="0.97"></circle><circle class="cls-48" cx="221.84" cy="392.67" r="0.97"></circle><circle class="cls-48" cx="224.6" cy="379.66" r="0.97"></circle><path class="cls-4" d="M160,441.13c-.68,2.37-.53,4.27-1,6.69-.67,3.61-.93,7.76,1.5,10.51a7.1,7.1,0,0,0,6,2.78c2.24,0,4.46-.37,6.7-.43,1.5,0,6.1.37,7.6.43,6.7.27,10.48-1.21,17.11-2a157.73,157.73,0,0,0,17.41-3.5c17.15-4.7,10.94-11.61,7.15-12.71-.82-.24-4.56-1.48-4.56-1.48l-5,1.4H195.36a85.3,85.3,0,0,1-10.45-1.07" transform="translate(-2.51 -41.16)"></path><path class="cls-46" d="M210.06,431.67a10.07,10.07,0,0,1,1.05.71,12.33,12.33,0,0,0,2.39,1.17l2.4,1a1,1,0,0,1,.75,1c.5,2.52,1,5.13.33,7.79a10,10,0,0,1-1.41-2.81,3.08,3.08,0,0,0-.66-1.37,4,4,0,0,0-.77-.48,8.2,8.2,0,0,1-2.12-2,1.32,1.32,0,0,1-.35-.63.82.82,0,0,0,0-.26.48.48,0,0,0-.18-.17l-3-1.9" transform="translate(-2.51 -41.16)"></path><path class="cls-10" d="M162.94,441.13c-1.38-1-2.88-2.16-4.31-3.35-3.25-2.73-6.16-5.7-6.52-7.86-.79-4.84-.17-19.24.21-26,0-.41,0-.79.06-1.16.39-6.42,3.84-9.27,5.56-10.31.88,8.35,2.87,27.19,3,28.16C161.18,421.82,162.94,441.13,162.94,441.13Z" transform="translate(-2.51 -41.16)"></path><path class="cls-11" d="M162.94,441.13c-1.38-1-2.88-2.16-4.31-3.35-.12-5.31-2.05-4.15-4.28-13.43a61.89,61.89,0,0,1-.63-22.41l5.3.81c.88,8.26,1.84,17.18,2,17.84C161.19,421.82,162.94,441.13,162.94,441.13Z" transform="translate(-2.51 -41.16)"></path><path class="cls-46" d="M166.24,388.68a18,18,0,0,0,.64-6.69c-.5-2.84-2.2-8-1.56-11.79s5.47-7,10.58-6.53,6.6,5.4,7.46,8.24.71,7.17.5,9.52a6.58,6.58,0,0,1-2.34,4.69c-.85.5-4.06-.16-4.62.45s-1,4.23-1,4.23" transform="translate(-2.51 -41.16)"></path><path class="cls-10" d="M163.83,391.72s.28-2.24,1.14-3,6.53-.8,8.24-.58a26.13,26.13,0,0,1,6.46,2.59c.56.41-.54,2.57-.54,2.57Z" transform="translate(-2.51 -41.16)"></path><path class="cls-4" d="M166.45,383.84s7.1.6,8.45,0a5.37,5.37,0,0,0,3.48-4.33c.18-2.41-.32-3.16.6-4.51s1.74-.89,1.88.39.2,3.59.53,3.76,1-1.4.82-3.86a15.27,15.27,0,0,0-1-5.22c-.64-1.42-1-1.34-1.56-1.6a4.41,4.41,0,0,0,2.52-2.25c1.42-2.22.64-5.68-3.12-5.66-6.58,0-13.56,1.31-13.71,6.18,0,0-2.31-.36-2.38,4.08s2.77,9.8,3,11.19S165.74,383.52,166.45,383.84Z" transform="translate(-2.51 -41.16)"></path><path class="cls-10" d="M186.19,436c.26,2.22,2.21,5.66.88,6.15a25.37,25.37,0,0,1-5.37-.16h-.2c-2.36-.2-5.06-.46-7.32-.63-9-.38-13.64,1.42-14.55.91-.43-.26-.45-1-.31-1.85a21,21,0,0,0,.15-6c-.22-1.68-.53-3.68-1-6-1.49-7.91-4.41-20-4.84-27.27-.7-11.39,11.5-10.31,11.5-10.31,15.53-1,22.82,3.5,23.66,10.17.06.47.1,1,.14,1.52.4,6.88-1.7,18-2.7,26.28A41.79,41.79,0,0,0,186.19,436Z" transform="translate(-2.51 -41.16)"></path><path class="cls-11" d="M186.19,436c.26,2.22,2.21,5.66.88,6.15a25.37,25.37,0,0,1-5.37-.16c2.4.17,2.84-1.66,2.31-2.89a17.56,17.56,0,0,1-1.54-7.35c.11-3.3,1.35-10.76,2.09-17.8a57.32,57.32,0,0,0,0-12.35c.37.75,1.44,1.79,4.45,2.48.06,6.92-1.83,17.05-2.75,24.77A41.79,41.79,0,0,0,186.19,436Z" transform="translate(-2.51 -41.16)"></path><path class="cls-10" d="M178.56,392.42s7.12-.57,10.25,2.06c2.5,2.1,7.31,28.65,7.31,28.65l-6.65,2.75s-7.24-18.15-9.13-17.87" transform="translate(-2.51 -41.16)"></path><path class="cls-10" d="M189.2,425.22c2.26,7.15,20.69,9.85,20.69,9.85l1-3.28s-11.25-8.38-15.32-9.52" transform="translate(-2.51 -41.16)"></path><path class="cls-49" d="M213,443c1.64.1,3.28.32,4.92.37.14,0,.17-.22,0-.25a49.17,49.17,0,0,0-5-.36c-.16,0-.15.23,0,.24Z" transform="translate(-2.51 -41.16)"></path><path class="cls-49" d="M208.69,456.85c-6.11-.3-12.15,1.16-18.2,2s-12.47,1.17-18.05-1.33a2.29,2.29,0,0,0-3,.35,8.92,8.92,0,0,1-3.3,1.6c-1.7.36-2.19-.07-3.91-.35a.75.75,0,0,0-.5,0s0,.07-.07.1a7.11,7.11,0,0,0,4.88,1.82c2.24,0,4.46-.37,6.7-.43,1.5,0,6.1.37,7.6.43,6.7.27,10.48-1.21,17.11-2,2.75-.34,6.85-1.09,10.65-1.9A.86.86,0,0,0,208.69,456.85Z" transform="translate(-2.51 -41.16)"></path><path class="cls-10" d="M381.1,213.42a9.89,9.89,0,0,0-3-1.38c-1.53-.43-.76-1.57-2.35-1.3-3,.51-10,1.91-14.27,3.08l-.12,0c-2.13.52-2.85,0-2.85,0l-.89,1,.12.36a3.44,3.44,0,0,0-1.31,2.46c0,.22-.24,1.08-.33,1.93s-.09,1.55.24,1.85l0,0,.12,0a11.63,11.63,0,0,0,3.93.55c2.22.12,7.5-.55,12.34-1.19,3-.4,5.87-.8,7.72-1a3.29,3.29,0,0,0,1.87-.85,2.9,2.9,0,0,0,.92-1.58C383.65,215.75,382.53,214.41,381.1,213.42Z" transform="translate(-2.51 -41.16)"></path><path class="cls-10" d="M361,219.6a3.3,3.3,0,0,1-.46.86q-.14.17-.27.3c-3.14,3.14-7.1,0-9.39-1.85-3.27-2.63-7.14-7.24-10.18-10.13-.1-.09-1.22-1-1.09-1.21l2.8-3.67s7.52,6.82,11.94,8.36a28.7,28.7,0,0,1,5.15,2.1,5.49,5.49,0,0,1,.47.31A5.34,5.34,0,0,1,361,219.6Z" transform="translate(-2.51 -41.16)"></path><path class="cls-11" d="M372.79,220.85c-4.84.65-10.12,1.31-12.34,1.19a11.63,11.63,0,0,1-3.93-.54l-.12,0,0,0c-2.91-1.23-4.69-4-.24-1.85a14.94,14.94,0,0,0,2.51,1,9.09,9.09,0,0,0,1.66.15h.25C364.66,220.74,376.66,211.75,372.79,220.85Z" transform="translate(-2.51 -41.16)"></path><path class="cls-10" d="M392.43,238.24a12.68,12.68,0,0,0-.57,7.32c1.08,4.85-.15,5.17-.15,5.17s-6.57,4.17-12,5.88c-3.92,1.22-7.26,1-7.16-3.31v-.06l0-.76c.18-9.72-1.84-10.22-2.34-21.1-.52-11.17-.4-17.78,3.17-19.58,3.9-2,9.26-3.31,16.86-1.52,5.71,1.35,7.59,2.86,7.55,7.09a33.14,33.14,0,0,1-.61,5.2A93.87,93.87,0,0,1,392.43,238.24Z" transform="translate(-2.51 -41.16)"></path><path class="cls-11" d="M392.43,238.24a12.68,12.68,0,0,0-.57,7.32c1.08,4.85-.15,5.17-.15,5.17s-6.57,4.17-12,5.88l-5.11-.48-2-1.61v-1.28l0-.76a37.83,37.83,0,0,0,7.71-.2,32,32,0,0,0,7.56-1.89,3,3,0,0,0,1.86-3.28,42.35,42.35,0,0,1-.71-6.78,36.11,36.11,0,0,1,1.82-8.37,16.87,16.87,0,0,0,.68-6.19,55.27,55.27,0,0,1,0-7.05l4-2.19,2.26.84a33.14,33.14,0,0,1-.61,5.2A93.87,93.87,0,0,1,392.43,238.24Z" transform="translate(-2.51 -41.16)"></path><path class="cls-4" d="M375.13,193.85A9.58,9.58,0,0,1,373,187c.22-2.34.94-4.62,4.45-5.47,1.93-.47,4.67,1,6.62,3.17,6.11.51,8.1,4.72,8.34,9.49l-7.18-1.6Z" transform="translate(-2.51 -41.16)"></path><path class="cls-46" d="M391.09,196.91c-.14,5.47-4.86,8.64-4.86,8.64l.32,5-3.18,2.06L381.17,214l-1.25-2.62-.17-3.21a1.66,1.66,0,0,0-1.31-1.53,6,6,0,0,1-3.11-1.88,2.08,2.08,0,0,1-.2-.25h0c-2.07-2.82-2.85-13.62,4.23-16.68C386.67,184.68,391.23,191.43,391.09,196.91Z" transform="translate(-2.51 -41.16)"></path><path class="cls-50" d="M378.64,214.32s-3.12,19.42-1.94,28.72l2.18,4,2.39-4.33s-2.28-16.22-1-28Z" transform="translate(-2.51 -41.16)"></path><path class="cls-51" d="M378.23,212.67l0,.25a5.06,5.06,0,0,0,.38,1.4h0l1.6.33,1.4-1-1.6-1.86-.25.06a3.54,3.54,0,0,0-1.54.84Z" transform="translate(-2.51 -41.16)"></path><path class="cls-11" d="M386.51,208.22A5.09,5.09,0,0,1,388,209.8a20.23,20.23,0,0,0-2,1c-.84.51-4.86,3.35-4.86,3.35L380,211.75S384.23,208.85,386.51,208.22Z" transform="translate(-2.51 -41.16)"></path><path class="cls-11" d="M380,211.75a3.36,3.36,0,0,0-1.84,1.53,5,5,0,0,1,.2-3.83,6.35,6.35,0,0,1,1.36-1Z" transform="translate(-2.51 -41.16)"></path><g class="cls-52"><ellipse class="cls-7" cx="386.11" cy="304.87" rx="31.36" ry="4.16"></ellipse></g><path class="cls-46" d="M373.78,340.56a7,7,0,0,0-.49,2.36c.07.94,3.06,1,3.41.52s.52-4.8.52-4.8" transform="translate(-2.51 -41.16)"></path><path class="cls-53" d="M377.49,344.28a20,20,0,0,1-.27,2.57h-3.45l-.17-.58a5.42,5.42,0,0,1-2,.58H368.7c-2.13,0-3.34-.27-3.39-.65-.22-1.57,2.32-1.5,3-1.5,1.9,0,4-.89,4.41-1.86.33-.7.18-.88.58-.75a1,1,0,0,1,.59.51,1.75,1.75,0,0,0,1.8,1,2.08,2.08,0,0,0,1.16-.56A1.26,1.26,0,0,1,377.49,344.28Z" transform="translate(-2.51 -41.16)"></path><path class="cls-46" d="M407.31,337.31a28.12,28.12,0,0,0,1.05,3.37c.41.85,3.22-.2,3.36-.78s-1.29-4.65-1.29-4.65" transform="translate(-2.51 -41.16)"></path><path class="cls-53" d="M412.76,340.38c.36.91.9,2.67.9,2.67L411,344.61l-.51-.39a5.1,5.1,0,0,1-1.37,1.44,11.2,11.2,0,0,1-2.59,1.07c-2.39.55-4.23.28-4.42,0-.79-1.37,2.37-2.13,3-2.37a4.26,4.26,0,0,0,2.64-3.48c0-.77-.16-.88.26-.91a1,1,0,0,1,.74.25,1.75,1.75,0,0,0,2,.24,2.08,2.08,0,0,0,.87-1A1.26,1.26,0,0,1,412.76,340.38Z" transform="translate(-2.51 -41.16)"></path><path class="cls-4" d="M395.2,270.09s4.68-11.21-3.49-19.36c0,0-7,3.12-12.55,3.5a27.61,27.61,0,0,1-6.63-.16,142.35,142.35,0,0,0-.45,21Z" transform="translate(-2.51 -41.16)"></path><path class="cls-4" d="M377.63,341.64h-.41a23.62,23.62,0,0,1-4.56-.31v-.84c.16-12.84-1.39-33.82-1.7-40.45a7.38,7.38,0,0,1,0-1.27c.5-4.85,5.52-4.22,7.63.24a17.8,17.8,0,0,1,1.19,3.43,31.36,31.36,0,0,1,.78,4.84C381.58,318.38,378.49,333.37,377.63,341.64Z" transform="translate(-2.51 -41.16)"></path><path class="cls-4" d="M386.33,275.26c0,.13-.05.27-.08.41-1.11,5.84-4.71,21.64-6.43,26.77h0a3.09,3.09,0,0,1-2.21,1.61c-2.52.69-6.29-.25-6.61-5.29a12.3,12.3,0,0,1,0-1.82c.33-4.09,1.23-26.68,1.41-28.86s.57-5.36,1.72-5.76C379.89,260.35,387.83,267.09,386.33,275.26Z" transform="translate(-2.51 -41.16)"></path><path class="cls-49" d="M381,298.51c1.84-6.83,4.38-18.1,5.28-22.84L385,270.26l-5.87-7-3.28-.45s.53,10.65,4.37,19.11c0,0,0,12-1.62,17.16l-1.41,4s.16.38.39,1.09a36,36,0,0,1,1.49,15.39c-1.17,9.08-1.89,22.19-1.89,22.19h.41c.83-8,3.73-22.24,3-33.19a4.53,4.53,0,0,0-.07-1.15,28.19,28.19,0,0,1,.37-8.78Z" transform="translate(-2.51 -41.16)"></path><path class="cls-4" d="M397.77,298.69c-3.89-3.66-9.3-1.93-6.77,3.75,2.7,6.07,11.05,22.92,15.58,34.93l.31.78a24.58,24.58,0,0,0,4.74-1.54c-2.15-7.8-3.72-21.23-8.2-30.59A25.32,25.32,0,0,0,397.77,298.69Z" transform="translate(-2.51 -41.16)"></path><path class="cls-4" d="M375.87,262.76c-.76-9,10.5-3,15.9-.05,2.27,1.25,3.1,3.77,3.41,6.13S398.4,295.53,399,300c1.32,10-7.42,4.54-8.25,1.76C388.65,294.73,376.28,267.68,375.87,262.76Z" transform="translate(-2.51 -41.16)"></path><path class="cls-4" d="M398.21,293.77s.36,4.79,4.38,10.69c0,0-6.58-3-6.9-3.49a24.71,24.71,0,0,1-1.34-5.58C394.47,294.91,398.21,293.77,398.21,293.77Z" transform="translate(-2.51 -41.16)"></path><path class="cls-27" d="M321.24,182.68c5-3.08,6.5-6,6.5-6a11,11,0,0,0,.12-1.9c0-2.38-.76-6.35-4.9-7.88-6.11-2.24-10.05,1.9-14.26-5.42l0,.11C309.79,168.39,308.72,182.73,321.24,182.68Z" transform="translate(-2.51 -41.16)"></path><path class="cls-54" d="M321.24,182.68c5-3.08,6.5-6,6.5-6a11,11,0,0,0,.12-1.9C313.78,188,309,163.42,308.71,161.56,309.79,168.39,308.72,182.73,321.24,182.68Z" transform="translate(-2.51 -41.16)"></path><g class="cls-55"><path class="cls-56" d="M308.71,161.56a13,13,0,0,0,4,5.32,9.73,9.73,0,0,0,2.84,1.66,15.15,15.15,0,0,0,3.25.67,14.55,14.55,0,0,1,3.36.71,6.61,6.61,0,0,1,2.78,2.09,6.36,6.36,0,0,1,1.27,3.2,7.09,7.09,0,0,1-.49,3.35,6.77,6.77,0,0,0-1.16-6.25,6.26,6.26,0,0,0-2.6-1.88,18.18,18.18,0,0,0-3.24-.67,15.63,15.63,0,0,1-3.34-.76,10.33,10.33,0,0,1-2.91-1.84A12.14,12.14,0,0,1,308.71,161.56Z" transform="translate(-2.51 -41.16)"></path></g><g class="cls-55"><path class="cls-56" d="M308.71,161.56a20.47,20.47,0,0,0,2.44,5.77,14.29,14.29,0,0,0,4.26,4.45,20.45,20.45,0,0,0,2.78,1.41,15.1,15.1,0,0,1,2.75,1.66,7.68,7.68,0,0,1,2.07,2.47,6.31,6.31,0,0,1,.63,3.11,6.86,6.86,0,0,0-.9-3,7.32,7.32,0,0,0-2.1-2.22A14.58,14.58,0,0,0,318,173.7a15.58,15.58,0,0,1-2.86-1.44,13.67,13.67,0,0,1-4.31-4.71A17.29,17.29,0,0,1,308.71,161.56Z" transform="translate(-2.51 -41.16)"></path></g><path class="cls-11" d="M402.74,272.92a3.06,3.06,0,0,1-.95-.21c-3.63-1.41-4.58-9.58-4.67-10.51l-.11-1.06,1,.32c.89.29,8.76,2.92,9.51,6.62a3.47,3.47,0,0,1-1.46,3.38A4.74,4.74,0,0,1,402.74,272.92Zm-4.1-9.77c.42,2.73,1.56,7.45,3.65,8.27.8.31,1.76,0,2.86-1a2.19,2.19,0,0,0,1-2.06C405.73,266.22,401.26,264.14,398.64,263.16Z" transform="translate(-2.51 -41.16)"></path><rect class="cls-57" x="357.85" y="168.28" width="8.87" height="108.28" transform="translate(-58.9 254.97) rotate(-41.53)"></rect><rect class="cls-58" x="320.96" y="179.15" width="8.87" height="3.09" transform="translate(-40.51 220.02) rotate(-41.53)"></rect><rect class="cls-23" x="357.85" y="168.28" width="8.87" height="108.28" transform="translate(-58.9 254.97) rotate(-41.53)"></rect><rect class="cls-59" x="320.96" y="179.15" width="8.87" height="3.09" transform="translate(-40.51 220.02) rotate(-41.53)"></rect><polygon class="cls-21" points="394.82 222.51 392.3 224.74 320.6 143.62 318.54 141.31 321.05 139.07 323.1 141.38 394.82 222.51"></polygon><rect class="cls-11" x="393.14" y="261.47" width="8.87" height="1.73" transform="translate(-76.49 288.4) rotate(-41.53)"></rect><path class="cls-46" d="M388.59,253.85l-2.33-1.94s-.88,1.14-1.32,1.28c-.12,0-.37-.06-.49-.06a4.15,4.15,0,0,0-1.88.58c-.55.25-1.27.48-1.3.7s.35.57.74.54l.19,0a.85.85,0,0,0,0,.23c.16.49,2.45,3.69,4.72.21A6.54,6.54,0,0,1,388.59,253.85Z" transform="translate(-2.51 -41.16)"></path><path class="cls-10" d="M390.69,223c1,3.19,2.14,8.23,4.23,12.51a3,3,0,0,0,.13.27l0,.06a3.66,3.66,0,0,0,.16.47A3.81,3.81,0,0,0,399,238.9l.79,0a14.37,14.37,0,0,0,1.55,0c.65,0,1.22-.17,1.41-.49a0,0,0,0,0,0,0,2,2,0,0,0,.08-.32.86.86,0,0,0,0-.18,1,1,0,0,0,0-.19c0-.18,0-.36,0-.54a2.15,2.15,0,0,0,0-.27,18.3,18.3,0,0,0-.21-2.61c-.33-3.59-3.88-14.84-5.09-19.52a3.24,3.24,0,0,0-1.1-1.73,2.86,2.86,0,0,0-1.68-.67h0a2.15,2.15,0,0,0-.27,0c-1.57,0-2.66,1.28-3.38,2.77a9.63,9.63,0,0,0-.93,3.11A11,11,0,0,0,390.69,223Z" transform="translate(-2.51 -41.16)"></path><path class="cls-10" d="M385.29,252.52l2,1.77h0l.51.45s4-3.46,7.08-6.38c2.87-2.72,5.79-5.76,7.61-9.39.09-.17.18-.36.26-.52v0a2,2,0,0,0,.08-.32.86.86,0,0,0,0-.18,1,1,0,0,0,0-.19c0-.18,0-.36,0-.54a2.15,2.15,0,0,0,0-.27,3.26,3.26,0,0,0-.73-2.1l-.15-.17a3.29,3.29,0,0,0-.78-.57,3.24,3.24,0,0,0-.58-.25,5.53,5.53,0,0,0-4.44.6c-.12.12-.26.26-.38.4s-.55.61-.83,1a16.09,16.09,0,0,0-2.14,3.58C391,243.78,385.29,252.52,385.29,252.52Z" transform="translate(-2.51 -41.16)"></path><path class="cls-4" d="M374.26,190.24s4.7-.94,8.31,1a6.65,6.65,0,0,0,6,.19l1.36-.64s-1.34-1.56-1.54-1.69a11.82,11.82,0,0,0-2.06-1.74c-.7-.29-3.64-1.24-4-1.3a8.1,8.1,0,0,0-2.36,0,5.92,5.92,0,0,0-1.84.62c-.47.23-1.84,1.09-1.84,1.09Z" transform="translate(-2.51 -41.16)"></path><path class="cls-46" d="M340.33,206.67s-3.38-2.95-3.56-5c-.19-2.28,1.41-3.38,2.47-2.12,1.66,2,1.36,5.22,1.36,5.22l.62.73Z" transform="translate(-2.51 -41.16)"></path><path class="cls-11" d="M387.25,254.29h0l.51.45s4-3.46,7.08-6.38c2.87-2.72,5.79-5.76,7.61-9.39.09-.17.18-.36.26-.52v0a2,2,0,0,0,.08-.32.86.86,0,0,0,0-.18,1,1,0,0,0,0-.19c0-.18,0-.36,0-.54a2.15,2.15,0,0,0,0-.27,18.3,18.3,0,0,0-.21-2.61c-.33-3.59-3.88-14.84-5.09-19.52a3.24,3.24,0,0,0-1.1-1.73,2.86,2.86,0,0,0-1.68-.67h0a2.15,2.15,0,0,0-.27,0c.75,1.2,1.81,3.64,3,8.51,1.58,6.5,2.7,10.43,3.15,13a8.8,8.8,0,0,1,.2,2.71,8.4,8.4,0,0,1-1.14,2.37C397,243.46,390.08,252.35,387.25,254.29Z" transform="translate(-2.51 -41.16)"></path><path class="cls-4" d="M386.23,205.56a18.27,18.27,0,0,1-.51-4.06s2.32-1.64,2.32-3.31c0-2.33-2.59,0-2.59,0a17,17,0,0,1-.66-3.28c-.21-2.61,4.18-4.53,4.18-4.53l2.3,1.67,1.11,2.17S392.48,203.34,386.23,205.56Z" transform="translate(-2.51 -41.16)"></path><path class="cls-31" d="M304.71,269.16,276.35,285.5a.78.78,0,0,1-1.07-.29L273,281.3a.78.78,0,0,1,.29-1.08l28.36-16.34a.79.79,0,0,1,1.07.29l2.25,3.91A.79.79,0,0,1,304.71,269.16Z" transform="translate(-2.51 -41.16)"></path><g class="cls-60"><g class="cls-61"><path class="cls-62" d="M301,265.85a.13.13,0,0,1-.18,0l-.63-1.09.23-.13.63,1.09A.13.13,0,0,1,301,265.85Z" transform="translate(-2.51 -41.16)"></path><path class="cls-62" d="M300.18,265.45a.07.07,0,0,1-.09,0l-.27-.47.12-.07.27.47A.07.07,0,0,1,300.18,265.45Z" transform="translate(-2.51 -41.16)"></path></g><g class="cls-61"><path class="cls-62" d="M300,266.43a.13.13,0,0,1-.18,0l-.63-1.09.23-.13.63,1.09A.13.13,0,0,1,300,266.43Z" transform="translate(-2.51 -41.16)"></path><path class="cls-62" d="M299.18,266a.07.07,0,0,1-.09,0l-.27-.47.12-.07.27.47A.07.07,0,0,1,299.18,266Z" transform="translate(-2.51 -41.16)"></path></g><g class="cls-61"><path class="cls-62" d="M299.05,267a.14.14,0,0,1-.19,0l-.63-1.09.24-.14.63,1.09A.14.14,0,0,1,299.05,267Z" transform="translate(-2.51 -41.16)"></path><path class="cls-62" d="M298.19,266.59a.07.07,0,0,1-.09,0l-.27-.47.12-.07.27.47A.07.07,0,0,1,298.19,266.59Z" transform="translate(-2.51 -41.16)"></path></g><g class="cls-61"><path class="cls-62" d="M298.06,267.57a.13.13,0,0,1-.18,0l-.63-1.09.23-.13.63,1.09A.13.13,0,0,1,298.06,267.57Z" transform="translate(-2.51 -41.16)"></path><path class="cls-62" d="M297.19,267.17a.07.07,0,0,1-.09,0l-.27-.47.12-.07.27.47A.07.07,0,0,1,297.19,267.17Z" transform="translate(-2.51 -41.16)"></path></g><g class="cls-61"><path class="cls-62" d="M297.06,268.15a.13.13,0,0,1-.18,0l-.63-1.09.23-.13.63,1.09A.13.13,0,0,1,297.06,268.15Z" transform="translate(-2.51 -41.16)"></path><path class="cls-62" d="M296.2,267.74a.07.07,0,0,1-.09,0l-.27-.47.12-.07.27.47A.07.07,0,0,1,296.2,267.74Z" transform="translate(-2.51 -41.16)"></path></g><g class="cls-61"><path class="cls-62" d="M296.07,268.72a.13.13,0,0,1-.18,0l-.63-1.09.23-.13.63,1.09A.13.13,0,0,1,296.07,268.72Z" transform="translate(-2.51 -41.16)"></path><path class="cls-62" d="M295.2,268.31a.07.07,0,0,1-.09,0l-.27-.47.12-.07.27.47A.07.07,0,0,1,295.2,268.31Z" transform="translate(-2.51 -41.16)"></path></g><g class="cls-61"><path class="cls-62" d="M295.07,269.29a.14.14,0,0,1-.19,0l-.63-1.09.24-.14.63,1.09A.14.14,0,0,1,295.07,269.29Z" transform="translate(-2.51 -41.16)"></path><path class="cls-62" d="M294.21,268.88a.07.07,0,0,1-.09,0l-.27-.47.12-.07.27.47A.07.07,0,0,1,294.21,268.88Z" transform="translate(-2.51 -41.16)"></path></g><g class="cls-61"><path class="cls-62" d="M294.08,269.87a.13.13,0,0,1-.18,0l-.63-1.09.23-.13.63,1.09A.13.13,0,0,1,294.08,269.87Z" transform="translate(-2.51 -41.16)"></path><path class="cls-62" d="M293.21,269.46a.07.07,0,0,1-.09,0l-.27-.47.12-.07.27.47A.07.07,0,0,1,293.21,269.46Z" transform="translate(-2.51 -41.16)"></path></g><g class="cls-61"><path class="cls-62" d="M293.08,270.44a.13.13,0,0,1-.18,0l-.63-1.09.23-.13.63,1.09A.13.13,0,0,1,293.08,270.44Z" transform="translate(-2.51 -41.16)"></path><path class="cls-62" d="M292.22,270a.07.07,0,0,1-.09,0l-.27-.47.12-.07.27.47A.07.07,0,0,1,292.22,270Z" transform="translate(-2.51 -41.16)"></path></g><g class="cls-61"><path class="cls-62" d="M292.09,271a.13.13,0,0,1-.18,0l-.63-1.09.23-.13.63,1.09A.13.13,0,0,1,292.09,271Z" transform="translate(-2.51 -41.16)"></path><path class="cls-62" d="M291.22,270.6a.07.07,0,0,1-.09,0l-.27-.47L291,270l.27.47A.07.07,0,0,1,291.22,270.6Z" transform="translate(-2.51 -41.16)"></path></g><g class="cls-61"><path class="cls-62" d="M291.09,271.58a.14.14,0,0,1-.19,0l-.63-1.09.24-.14.63,1.09A.14.14,0,0,1,291.09,271.58Z" transform="translate(-2.51 -41.16)"></path><path class="cls-62" d="M290.23,271.18a.07.07,0,0,1-.09,0l-.27-.47.12-.07.27.47A.07.07,0,0,1,290.23,271.18Z" transform="translate(-2.51 -41.16)"></path></g><g class="cls-61"><path class="cls-62" d="M290.1,272.16a.13.13,0,0,1-.18,0l-.63-1.09.23-.13.63,1.09A.13.13,0,0,1,290.1,272.16Z" transform="translate(-2.51 -41.16)"></path><path class="cls-62" d="M289.23,271.75a.07.07,0,0,1-.09,0l-.27-.47.12-.07.27.47A.07.07,0,0,1,289.23,271.75Z" transform="translate(-2.51 -41.16)"></path></g><g class="cls-61"><path class="cls-62" d="M289.1,272.73a.13.13,0,0,1-.18,0l-.63-1.09.23-.13.63,1.09A.13.13,0,0,1,289.1,272.73Z" transform="translate(-2.51 -41.16)"></path><path class="cls-62" d="M288.24,272.32a.07.07,0,0,1-.09,0l-.27-.47.12-.07.27.47A.07.07,0,0,1,288.24,272.32Z" transform="translate(-2.51 -41.16)"></path></g><g class="cls-61"><path class="cls-62" d="M288.11,273.3a.13.13,0,0,1-.18,0l-.63-1.09.23-.13.63,1.09A.13.13,0,0,1,288.11,273.3Z" transform="translate(-2.51 -41.16)"></path><path class="cls-62" d="M287.24,272.9a.07.07,0,0,1-.09,0l-.27-.47.12-.07.27.47A.07.07,0,0,1,287.24,272.9Z" transform="translate(-2.51 -41.16)"></path></g><g class="cls-61"><path class="cls-62" d="M287.12,273.88a.14.14,0,0,1-.19,0l-.63-1.09.24-.14.63,1.09A.14.14,0,0,1,287.12,273.88Z" transform="translate(-2.51 -41.16)"></path><path class="cls-62" d="M286.25,273.47a.07.07,0,0,1-.09,0l-.27-.47.12-.07.27.47A.07.07,0,0,1,286.25,273.47Z" transform="translate(-2.51 -41.16)"></path></g><g class="cls-61"><path class="cls-62" d="M286.12,274.45a.13.13,0,0,1-.18,0l-.63-1.09.23-.13.63,1.09A.13.13,0,0,1,286.12,274.45Z" transform="translate(-2.51 -41.16)"></path><path class="cls-62" d="M285.25,274a.07.07,0,0,1-.09,0l-.27-.47.12-.07.27.47A.07.07,0,0,1,285.25,274Z" transform="translate(-2.51 -41.16)"></path></g><g class="cls-61"><path class="cls-62" d="M285.12,275a.13.13,0,0,1-.18,0l-.63-1.09.23-.13.63,1.09A.13.13,0,0,1,285.12,275Z" transform="translate(-2.51 -41.16)"></path><path class="cls-62" d="M284.26,274.62a.07.07,0,0,1-.09,0l-.27-.47.12-.07.27.47A.07.07,0,0,1,284.26,274.62Z" transform="translate(-2.51 -41.16)"></path></g><g class="cls-61"><path class="cls-62" d="M284.13,275.6a.13.13,0,0,1-.18,0l-.63-1.09.23-.13.63,1.09A.13.13,0,0,1,284.13,275.6Z" transform="translate(-2.51 -41.16)"></path><path class="cls-62" d="M283.27,275.19a.07.07,0,0,1-.09,0l-.27-.47.12-.07.27.47A.07.07,0,0,1,283.27,275.19Z" transform="translate(-2.51 -41.16)"></path></g><g class="cls-61"><path class="cls-62" d="M283.14,276.17a.14.14,0,0,1-.19,0l-.63-1.09.24-.14.63,1.09A.14.14,0,0,1,283.14,276.17Z" transform="translate(-2.51 -41.16)"></path><path class="cls-62" d="M282.27,275.76a.07.07,0,0,1-.09,0l-.27-.47.12-.07.27.47A.07.07,0,0,1,282.27,275.76Z" transform="translate(-2.51 -41.16)"></path></g><g class="cls-61"><path class="cls-62" d="M282.14,276.74a.13.13,0,0,1-.18,0l-.63-1.09.23-.13.63,1.09A.13.13,0,0,1,282.14,276.74Z" transform="translate(-2.51 -41.16)"></path><path class="cls-62" d="M281.27,276.34a.07.07,0,0,1-.09,0l-.27-.47.12-.07.27.47A.07.07,0,0,1,281.27,276.34Z" transform="translate(-2.51 -41.16)"></path></g><g class="cls-61"><path class="cls-62" d="M281.14,277.32a.13.13,0,0,1-.18,0l-.63-1.09.23-.13.63,1.09A.13.13,0,0,1,281.14,277.32Z" transform="translate(-2.51 -41.16)"></path><path class="cls-62" d="M280.28,276.91a.07.07,0,0,1-.09,0l-.27-.47.12-.07.27.47A.07.07,0,0,1,280.28,276.91Z" transform="translate(-2.51 -41.16)"></path></g><g class="cls-61"><path class="cls-62" d="M280.15,277.89a.13.13,0,0,1-.18,0l-.63-1.09.23-.13.63,1.09A.13.13,0,0,1,280.15,277.89Z" transform="translate(-2.51 -41.16)"></path><path class="cls-62" d="M279.29,277.48a.07.07,0,0,1-.09,0l-.27-.47.12-.07.27.47A.07.07,0,0,1,279.29,277.48Z" transform="translate(-2.51 -41.16)"></path></g><g class="cls-61"><path class="cls-62" d="M279.16,278.46a.14.14,0,0,1-.19,0l-.63-1.09.24-.14.63,1.09A.14.14,0,0,1,279.16,278.46Z" transform="translate(-2.51 -41.16)"></path><path class="cls-62" d="M278.29,278.05a.07.07,0,0,1-.09,0l-.27-.47.12-.07.27.47A.07.07,0,0,1,278.29,278.05Z" transform="translate(-2.51 -41.16)"></path></g><g class="cls-61"><path class="cls-62" d="M278.16,279a.13.13,0,0,1-.18,0l-.63-1.09.23-.13.63,1.09A.13.13,0,0,1,278.16,279Z" transform="translate(-2.51 -41.16)"></path><path class="cls-62" d="M277.29,278.63a.07.07,0,0,1-.09,0l-.27-.47.12-.07.27.47A.07.07,0,0,1,277.29,278.63Z" transform="translate(-2.51 -41.16)"></path></g><g class="cls-61"><path class="cls-62" d="M277.17,279.61a.13.13,0,0,1-.18,0l-.63-1.09.23-.13.63,1.09A.13.13,0,0,1,277.17,279.61Z" transform="translate(-2.51 -41.16)"></path><path class="cls-62" d="M276.3,279.2a.07.07,0,0,1-.09,0l-.27-.47.12-.07.27.47A.07.07,0,0,1,276.3,279.2Z" transform="translate(-2.51 -41.16)"></path></g><g class="cls-61"><path class="cls-62" d="M276.17,280.18a.13.13,0,0,1-.18,0l-.63-1.09.23-.13.63,1.09A.13.13,0,0,1,276.17,280.18Z" transform="translate(-2.51 -41.16)"></path><path class="cls-62" d="M275.31,279.77a.07.07,0,0,1-.09,0l-.27-.47.12-.07.27.47A.07.07,0,0,1,275.31,279.77Z" transform="translate(-2.51 -41.16)"></path></g></g><ellipse class="cls-7" cx="323.24" cy="397.26" rx="27.73" ry="4.17"></ellipse><path class="cls-46" d="M332.91,429.57s.09,3.82.17,4.79,3.17,1,3.53.54.54-5,.54-5" transform="translate(-2.51 -41.16)"></path><path class="cls-53" d="M337.43,435.76a20.68,20.68,0,0,1-.28,2.67h-3.57l-.18-.6a5.61,5.61,0,0,1-2.07.6h-3c-2.21,0-3.46-.28-3.51-.67-.23-1.62,2.4-1.55,3.09-1.55,2,0,4.1-.92,4.57-1.92.34-.73.19-.91.6-.77a1,1,0,0,1,.61.53,1.81,1.81,0,0,0,1.86,1,2.16,2.16,0,0,0,1.21-.58A1.3,1.3,0,0,1,337.43,435.76Z" transform="translate(-2.51 -41.16)"></path><path class="cls-46" d="M320.38,428.54a29.17,29.17,0,0,0,1.09,3.49c.43.88,3.33-.2,3.48-.81s-1.34-4.82-1.34-4.82" transform="translate(-2.51 -41.16)"></path><path class="cls-53" d="M326,431.72c.38.94.93,2.77.93,2.77l-2.71,1.61-.53-.4a5.27,5.27,0,0,1-1.42,1.49,11.6,11.6,0,0,1-2.68,1.11c-2.47.56-4.38.29-4.58,0-.82-1.42,2.46-2.2,3.1-2.46a4.42,4.42,0,0,0,2.73-3.6c0-.8-.16-.91.27-.94a1,1,0,0,1,.76.26,1.81,1.81,0,0,0,2.11.25,2.15,2.15,0,0,0,.91-1A1.3,1.3,0,0,1,326,431.72Z" transform="translate(-2.51 -41.16)"></path><path class="cls-38" d="M339.45,341.86c1.28-.95,2.68-2,4-3.12,3-2.54,5.73-5.3,6.07-7.32.74-4.51.16-17.9-.2-24.22,0-.38,0-.74-.06-1.07-.36-6-3.57-8.62-5.18-9.59-.82,7.77-2.67,25.3-2.82,26.2C341.08,323.89,339.45,341.86,339.45,341.86Z" transform="translate(-2.51 -41.16)"></path><path class="cls-62" d="M339.44,341.86c1.28-.95,2.68-2,4-3.12.11-4.94,1.58-11.83,3.65-20.47,2.46-10.88.91-12.88.91-12.88l-4.93.75c-.82,7.68-1.71,16-1.81,16.59C341.07,323.89,339.44,341.86,339.44,341.86Z" transform="translate(-2.51 -41.16)"></path><path class="cls-4" d="M327.58,382.74a118.88,118.88,0,0,0,1.53,15.18c.66,3.37,11.24,4,9.88,1.39-2-3.77,1.46-15.58,3.14-35.73.24-3,1.61-3.4,2.52-9.67a19.23,19.23,0,0,0-2.55-11.73l-14.69-1.36-.19,18.3-.06,6.19S327.14,373.8,327.58,382.74Z" transform="translate(-2.51 -41.16)"></path><path class="cls-4" d="M337.7,397s2.87,3.52,2.47,10-2.65,25.73-2.65,25.73-3.37.5-5.11-.14c0,0-3.63-35.74-3.65-39.8S337.7,397,337.7,397Z" transform="translate(-2.51 -41.16)"></path><path class="cls-49" d="M327.58,382.74a113.41,113.41,0,0,1,4.27-11.87,22.9,22.9,0,0,1,4.16-6.45c7.45-7.82,2.33-17.93,2.33-17.93s-6.07,5-6.49,5.55-2.83,4.76-4.62,7.09l-.06,6.19S327.14,373.8,327.58,382.74Z" transform="translate(-2.51 -41.16)"></path><path class="cls-4" d="M310.17,380.33s-3.33,11-2.8,14.4,12.71,35.58,12.71,35.58A12.27,12.27,0,0,0,325,429.1s-.26-14.15-2.65-23-5.16-14.27-7.54-15.06S310.83,382.18,310.17,380.33Z" transform="translate(-2.51 -41.16)"></path><path class="cls-50" d="M320.94,386.84s-3.61,5.75-1.39,10.92-3.72,4.3-3.72,4.3-3-8.66-2.31-9.78,3.11-4.89,3.9-5.09A34.51,34.51,0,0,1,320.94,386.84Z" transform="translate(-2.51 -41.16)"></path><path class="cls-4" d="M317.29,341.11s-7.73,35.78-8.74,45.42c-.43,4.09,3.87,10.84,7.83,7.14,4.73-4.41,12.39-24.61,14.77-28.18s11.28-6.84,5.2-24.94" transform="translate(-2.51 -41.16)"></path><path class="cls-46" d="M336.37,293.06a16.7,16.7,0,0,1-.59-6.22c.46-2.64,2-7.4,1.45-11s-5.09-6.54-9.84-6.08-6.14,5-6.94,7.66-.66,6.67-.46,8.85a6.12,6.12,0,0,0,2.18,4.36c.79.46,3.78-.15,4.3.42s.92,3.94.92,3.94" transform="translate(-2.51 -41.16)"></path><path class="cls-38" d="M338.62,295.89a6,6,0,0,0-1.06-2.83c-.79-.74-6.08-.74-7.66-.54a24.31,24.31,0,0,0-6,2.41c-.52.39.5,2.39.5,2.39Z" transform="translate(-2.51 -41.16)"></path><path class="cls-46" d="M283.38,275.16c0-.37.52-.2.65.11a2.15,2.15,0,0,1,.07.27c0-.62-.08-1.12-.07-1.24,0-.36.48-.23.64.05,0-.25,0-.44,0-.52,0-.46.53-.27.65.11a5.44,5.44,0,0,1,.11.63,3.1,3.1,0,0,1,0-.35c0-.37.47-.28.6,0a4.79,4.79,0,0,1,.13.73c.06.38.17.78.22,1.16a7.75,7.75,0,0,0,.24,1.07,4.68,4.68,0,0,0,1.74,1.34l1-.56a13.59,13.59,0,0,1,.25,2.39c-.07.55-.47,1.25-.43,1.58a8.11,8.11,0,0,0,.43,1.22l-2.84,1.18a7.22,7.22,0,0,0-.76-2.09,23,23,0,0,1-1.94-2.33,12.3,12.3,0,0,1-.43-1.41l-.2-1.06-.09-1S283.37,275.28,283.38,275.16Z" transform="translate(-2.51 -41.16)"></path><path class="cls-38" d="M286.29,283.72s1,5.56,1.91,10A43.34,43.34,0,0,0,291.51,304s0,.06,0,.08c.94,2,2.68,4.52,3.87,4.77a36,36,0,0,0,5.36,0c2.59.15,9.09-.7,14.63-1.44l.25,0c2.58-.35,4.93-.66,6.55-.83a3.38,3.38,0,0,0,2-.89,3,3,0,0,0,1-1.68s0,0,0,0c.37-1.79-.81-3.22-2.33-4.28a2.32,2.32,0,0,0-.22-.14c1.88-1.87,3.81-3.92,3.81-3.92s-5.32.25-8.29.45c-2,.14-15.82,3.82-17.47,4.35l-.36.13s-.21,0-.52.09l-.32.1a17,17,0,0,0-2-3.78c-3-4.16-7.77-14.24-7.77-14.24l-2.68.8h0Z" transform="translate(-2.51 -41.16)"></path><path class="cls-4" d="M336.17,288.56s-6.61.56-7.86,0a5,5,0,0,1-3.24-4c-.17-2.25.3-2.94-.56-4.2s-1.62-.83-1.75.36-.18,3.34-.5,3.49-.92-1.3-.76-3.59a14.2,14.2,0,0,1,1-4.86c.59-1.32.92-1.25,1.45-1.49a4.1,4.1,0,0,1-2.35-2.1c-1.32-2.06-.59-5.28,2.91-5.27,6.12,0,12.62,1.22,12.75,5.75,0,0,2.15-.33,2.21,3.8s-2.58,9.12-2.77,10.41S336.83,288.26,336.17,288.56Z" transform="translate(-2.51 -41.16)"></path><path class="cls-38" d="M317.81,337.1c-.24,2.07-2.06,5.27-.82,5.72a23.6,23.6,0,0,0,5-.15h.18c2.2-.19,4.7-.43,6.81-.59,8.4-.36,12.69,1.32,13.53.84.4-.24.42-1,.29-1.72a19.56,19.56,0,0,1-.14-5.57c.21-1.56.5-3.42.9-5.55,1.39-7.36,4.1-18.61,4.51-25.37.65-10.6-10.7-9.59-10.7-9.59-14.45-.9-21.23,3.26-22,9.46-.06.44-.09.91-.13,1.41-.37,6.4,1.58,16.73,2.51,24.45A38.87,38.87,0,0,1,317.81,337.1Z" transform="translate(-2.51 -41.16)"></path><path class="cls-62" d="M317.81,337.1c-.24,2.07-2.06,5.27-.82,5.72a23.6,23.6,0,0,0,5-.15c-2.23.16-2.65-1.55-2.15-2.69a16.34,16.34,0,0,0,1.43-6.84c-.1-3.07-1.26-10-1.94-16.56a53.33,53.33,0,0,1,0-11.49c-.35.69-1.34,1.66-4.14,2.31-.06,6.44,1.7,15.87,2.55,23A38.87,38.87,0,0,1,317.81,337.1Z" transform="translate(-2.51 -41.16)"></path><path class="cls-31" d="M140.15,203.73l16.11-38.45-12,2.42-.19,0-23.94,4.85-.41.07-24.12,4.88-.41.07L83.48,180Zm4-28.64-7.64,18.23L109.43,182Z" transform="translate(-2.51 -41.16)"></path><g class="cls-52"><path class="cls-63" d="M90,178.67l.26-.05.35,1.74a.13.13,0,1,1-.26.05Z" transform="translate(-2.51 -41.16)"></path><path class="cls-63" d="M90.67,178.54l.19,0,.17.86a.1.1,0,0,1-.19,0Z" transform="translate(-2.51 -41.16)"></path></g><g class="cls-52"><path class="cls-63" d="M91.26,178.42l.26-.05.35,1.74a.13.13,0,1,1-.26.05Z" transform="translate(-2.51 -41.16)"></path><path class="cls-63" d="M91.89,178.29l.19,0,.17.86a.1.1,0,0,1-.19,0Z" transform="translate(-2.51 -41.16)"></path></g><g class="cls-52"><path class="cls-63" d="M92.48,178.17l.26-.05.35,1.74a.13.13,0,1,1-.26.05Z" transform="translate(-2.51 -41.16)"></path><path class="cls-63" d="M93.12,178l.19,0,.17.86a.1.1,0,0,1-.19,0Z" transform="translate(-2.51 -41.16)"></path></g><g class="cls-52"><path class="cls-63" d="M93.71,177.92l.26-.05.35,1.74a.13.13,0,1,1-.26.05Z" transform="translate(-2.51 -41.16)"></path><path class="cls-63" d="M94.35,177.79l.18,0,.17.86a.1.1,0,0,1-.07.11.09.09,0,0,1-.11-.08Z" transform="translate(-2.51 -41.16)"></path></g><g class="cls-52"><path class="cls-63" d="M94.93,177.68l.27-.05.35,1.74a.14.14,0,0,1-.11.16.14.14,0,0,1-.16-.11Z" transform="translate(-2.51 -41.16)"></path><path class="cls-63" d="M95.57,177.55l.18,0,.17.86a.1.1,0,0,1-.07.11.09.09,0,0,1-.11-.08Z" transform="translate(-2.51 -41.16)"></path></g><g class="cls-52"><path class="cls-63" d="M96.16,177.43l.27-.05.35,1.74a.14.14,0,0,1-.11.16.14.14,0,0,1-.16-.11Z" transform="translate(-2.51 -41.16)"></path><path class="cls-63" d="M96.8,177.31l.18,0,.17.85a.09.09,0,0,1-.07.11.1.1,0,0,1-.11-.07Z" transform="translate(-2.51 -41.16)"></path></g><g class="cls-52"><path class="cls-63" d="M97.39,177.19l.27-.05.35,1.74a.14.14,0,0,1-.1.16.14.14,0,0,1-.16-.11Z" transform="translate(-2.51 -41.16)"></path><path class="cls-63" d="M98,177.06l.18,0,.17.85a.09.09,0,0,1-.07.11.1.1,0,0,1-.11-.07Z" transform="translate(-2.51 -41.16)"></path></g><g class="cls-52"><path class="cls-63" d="M98.61,176.94l.27-.05.35,1.74a.14.14,0,0,1-.1.16.14.14,0,0,1-.16-.11Z" transform="translate(-2.51 -41.16)"></path><path class="cls-63" d="M99.25,176.81l.19,0,.17.85a.1.1,0,0,1-.19,0Z" transform="translate(-2.51 -41.16)"></path></g><g class="cls-52"><path class="cls-63" d="M99.84,176.69l.26-.05.35,1.74a.13.13,0,1,1-.26.05Z" transform="translate(-2.51 -41.16)"></path><path class="cls-63" d="M100.48,176.56l.19,0,.17.85a.1.1,0,0,1-.19,0Z" transform="translate(-2.51 -41.16)"></path></g><g class="cls-52"><path class="cls-63" d="M101.07,176.44l.26-.05.35,1.74a.13.13,0,1,1-.26.05Z" transform="translate(-2.51 -41.16)"></path><path class="cls-63" d="M101.7,176.31l.19,0,.17.85a.1.1,0,1,1-.19,0Z" transform="translate(-2.51 -41.16)"></path></g><g class="cls-52"><path class="cls-63" d="M102.29,176.19l.26-.05.35,1.74a.13.13,0,1,1-.26.05Z" transform="translate(-2.51 -41.16)"></path><path class="cls-63" d="M102.93,176.06l.19,0,.17.85a.1.1,0,0,1-.19,0Z" transform="translate(-2.51 -41.16)"></path></g><g class="cls-52"><path class="cls-63" d="M103.52,175.95l.26-.05.35,1.74a.13.13,0,1,1-.26.05Z" transform="translate(-2.51 -41.16)"></path><path class="cls-63" d="M104.15,175.82l.19,0,.17.85a.1.1,0,1,1-.19,0Z" transform="translate(-2.51 -41.16)"></path></g><g class="cls-52"><path class="cls-63" d="M104.74,175.7l.26-.05.35,1.74a.13.13,0,1,1-.26.05Z" transform="translate(-2.51 -41.16)"></path><path class="cls-63" d="M105.39,175.57l.18,0,.17.85a.1.1,0,0,1-.07.11.09.09,0,0,1-.11-.08Z" transform="translate(-2.51 -41.16)"></path></g><g class="cls-52"><path class="cls-63" d="M106,175.45l.27-.05.35,1.74a.14.14,0,0,1-.11.16.14.14,0,0,1-.16-.11Z" transform="translate(-2.51 -41.16)"></path><path class="cls-63" d="M106.61,175.32l.18,0,.17.85a.1.1,0,0,1-.07.11.09.09,0,0,1-.11-.08Z" transform="translate(-2.51 -41.16)"></path></g><g class="cls-52"><path class="cls-63" d="M107.2,175.2l.27-.05.35,1.74a.14.14,0,0,1-.11.16.14.14,0,0,1-.16-.11Z" transform="translate(-2.51 -41.16)"></path><path class="cls-63" d="M107.84,175.07l.18,0,.17.85a.09.09,0,0,1-.07.11.1.1,0,0,1-.11-.07Z" transform="translate(-2.51 -41.16)"></path></g><g class="cls-52"><path class="cls-63" d="M108.42,175l.27-.05.35,1.74a.14.14,0,0,1-.1.16.14.14,0,0,1-.16-.11Z" transform="translate(-2.51 -41.16)"></path><path class="cls-63" d="M109.06,174.82l.18,0,.17.85a.09.09,0,0,1-.07.11.1.1,0,0,1-.11-.07Z" transform="translate(-2.51 -41.16)"></path></g><g class="cls-52"><path class="cls-63" d="M109.65,174.7l.27-.05.35,1.74a.14.14,0,0,1-.1.16.14.14,0,0,1-.16-.11Z" transform="translate(-2.51 -41.16)"></path><path class="cls-63" d="M110.29,174.58l.19,0,.17.85a.1.1,0,1,1-.19,0Z" transform="translate(-2.51 -41.16)"></path></g><g class="cls-52"><path class="cls-63" d="M110.88,174.46l.26-.05.35,1.74a.13.13,0,1,1-.26.05Z" transform="translate(-2.51 -41.16)"></path><path class="cls-63" d="M111.51,174.33l.19,0,.17.85a.1.1,0,0,1-.19,0Z" transform="translate(-2.51 -41.16)"></path></g><g class="cls-52"><path class="cls-63" d="M112.1,174.21l.26-.05.35,1.74a.13.13,0,1,1-.26.05Z" transform="translate(-2.51 -41.16)"></path><path class="cls-63" d="M112.74,174.08l.19,0,.17.85a.1.1,0,1,1-.19,0Z" transform="translate(-2.51 -41.16)"></path></g><g class="cls-52"><path class="cls-63" d="M113.33,174l.26-.05.35,1.74a.13.13,0,1,1-.26.05Z" transform="translate(-2.51 -41.16)"></path><path class="cls-63" d="M114,173.83l.19,0,.17.85a.1.1,0,0,1-.19,0Z" transform="translate(-2.51 -41.16)"></path></g><g class="cls-52"><path class="cls-63" d="M114.55,173.71l.26-.05.35,1.74a.13.13,0,1,1-.26.05Z" transform="translate(-2.51 -41.16)"></path><path class="cls-63" d="M115.19,173.58l.19,0,.17.85a.1.1,0,1,1-.19,0Z" transform="translate(-2.51 -41.16)"></path></g><g class="cls-52"><path class="cls-63" d="M115.78,173.46l.26-.05.35,1.74a.13.13,0,1,1-.26.05Z" transform="translate(-2.51 -41.16)"></path><path class="cls-63" d="M116.42,173.33l.18,0,.17.85a.1.1,0,0,1-.07.11.09.09,0,0,1-.11-.08Z" transform="translate(-2.51 -41.16)"></path></g><g class="cls-52"><path class="cls-63" d="M117,173.22l.27-.05.35,1.74a.14.14,0,0,1-.11.16.14.14,0,0,1-.16-.11Z" transform="translate(-2.51 -41.16)"></path><path class="cls-63" d="M117.65,173.09l.18,0,.17.85a.1.1,0,0,1-.07.11.09.09,0,0,1-.11-.08Z" transform="translate(-2.51 -41.16)"></path></g><g class="cls-52"><path class="cls-63" d="M118.23,173l.27-.05.35,1.74a.14.14,0,0,1-.11.16.14.14,0,0,1-.16-.11Z" transform="translate(-2.51 -41.16)"></path><path class="cls-63" d="M118.87,172.84l.18,0,.17.85a.09.09,0,0,1-.07.11.1.1,0,0,1-.11-.07Z" transform="translate(-2.51 -41.16)"></path></g><g class="cls-52"><path class="cls-63" d="M119.46,172.72l.27-.05.35,1.74a.14.14,0,1,1-.27.05Z" transform="translate(-2.51 -41.16)"></path><path class="cls-63" d="M120.1,172.59l.18,0,.17.85a.09.09,0,0,1-.07.11.1.1,0,0,1-.11-.07Z" transform="translate(-2.51 -41.16)"></path></g><g class="cls-52"><path class="cls-63" d="M120.68,172.48l.27-.05.35,1.73a.14.14,0,0,1-.1.16.14.14,0,0,1-.16-.11Z" transform="translate(-2.51 -41.16)"></path><path class="cls-63" d="M121.32,172.35l.19,0,.17.84a.1.1,0,1,1-.19,0Z" transform="translate(-2.51 -41.16)"></path></g><g class="cls-52"><path class="cls-63" d="M121.91,172.23l.26-.05.35,1.73a.13.13,0,1,1-.26.05Z" transform="translate(-2.51 -41.16)"></path><path class="cls-63" d="M122.55,172.1l.19,0,.17.84a.1.1,0,1,1-.19,0Z" transform="translate(-2.51 -41.16)"></path></g><g class="cls-52"><path class="cls-63" d="M123.14,172l.26-.05.35,1.73a.13.13,0,1,1-.26.05Z" transform="translate(-2.51 -41.16)"></path><path class="cls-63" d="M123.77,171.85l.19,0,.17.84a.1.1,0,0,1-.19,0Z" transform="translate(-2.51 -41.16)"></path></g><g class="cls-52"><path class="cls-63" d="M124.37,171.73l.26-.05.35,1.73a.13.13,0,1,1-.26.05Z" transform="translate(-2.51 -41.16)"></path><path class="cls-63" d="M125,171.6l.19,0,.17.84a.1.1,0,1,1-.19,0Z" transform="translate(-2.51 -41.16)"></path></g><g class="cls-52"><path class="cls-63" d="M125.59,171.48l.26-.05.35,1.73a.13.13,0,1,1-.26.05Z" transform="translate(-2.51 -41.16)"></path><path class="cls-63" d="M126.22,171.36l.19,0,.17.84a.1.1,0,1,1-.19,0Z" transform="translate(-2.51 -41.16)"></path></g><g class="cls-52"><path class="cls-63" d="M126.82,171.24l.26-.05.35,1.73a.13.13,0,1,1-.26.05Z" transform="translate(-2.51 -41.16)"></path><path class="cls-63" d="M127.46,171.11l.18,0,.17.84a.1.1,0,0,1-.07.11.09.09,0,0,1-.11-.08Z" transform="translate(-2.51 -41.16)"></path></g><g class="cls-52"><path class="cls-63" d="M128,171l.27-.05.35,1.73a.14.14,0,0,1-.11.16.14.14,0,0,1-.16-.11Z" transform="translate(-2.51 -41.16)"></path><path class="cls-63" d="M128.68,170.86l.18,0,.17.84a.1.1,0,0,1-.07.11.09.09,0,0,1-.11-.08Z" transform="translate(-2.51 -41.16)"></path></g><g class="cls-52"><path class="cls-63" d="M129.27,170.74l.27-.05.35,1.73a.14.14,0,0,1-.11.16.14.14,0,0,1-.16-.11Z" transform="translate(-2.51 -41.16)"></path><path class="cls-63" d="M129.91,170.61l.18,0,.17.84a.09.09,0,0,1-.07.11.1.1,0,0,1-.11-.07Z" transform="translate(-2.51 -41.16)"></path></g><g class="cls-52"><path class="cls-63" d="M130.49,170.49l.27-.05.35,1.73a.14.14,0,0,1-.1.16.14.14,0,0,1-.16-.11Z" transform="translate(-2.51 -41.16)"></path><path class="cls-63" d="M131.13,170.36l.18,0,.17.84a.09.09,0,0,1-.07.11.1.1,0,0,1-.11-.07Z" transform="translate(-2.51 -41.16)"></path></g><g class="cls-52"><path class="cls-63" d="M131.72,170.24l.27-.05.35,1.73a.14.14,0,0,1-.1.16.14.14,0,0,1-.16-.11Z" transform="translate(-2.51 -41.16)"></path><path class="cls-63" d="M132.36,170.11l.19,0,.17.84a.1.1,0,0,1-.19,0Z" transform="translate(-2.51 -41.16)"></path></g><g class="cls-52"><path class="cls-63" d="M132.95,170l.26-.05.35,1.73a.13.13,0,1,1-.26.05Z" transform="translate(-2.51 -41.16)"></path><path class="cls-63" d="M133.58,169.87l.19,0,.17.84a.1.1,0,0,1-.19,0Z" transform="translate(-2.51 -41.16)"></path></g><g class="cls-52"><path class="cls-63" d="M134.17,169.75l.26-.05.35,1.73a.13.13,0,1,1-.26.05Z" transform="translate(-2.51 -41.16)"></path><path class="cls-63" d="M134.81,169.62l.19,0,.17.84a.1.1,0,1,1-.19,0Z" transform="translate(-2.51 -41.16)"></path></g><g class="cls-52"><path class="cls-63" d="M135.4,169.5l.26-.05.35,1.73a.13.13,0,1,1-.26.05Z" transform="translate(-2.51 -41.16)"></path><path class="cls-63" d="M136,169.37l.19,0,.17.84a.1.1,0,0,1-.19,0Z" transform="translate(-2.51 -41.16)"></path></g><g class="cls-52"><path class="cls-63" d="M136.63,169.25l.26-.05.35,1.73a.13.13,0,1,1-.26.05Z" transform="translate(-2.51 -41.16)"></path><path class="cls-63" d="M137.26,169.12l.19,0,.17.84a.1.1,0,1,1-.19,0Z" transform="translate(-2.51 -41.16)"></path></g><g class="cls-52"><path class="cls-63" d="M137.85,169l.26-.05.35,1.73a.13.13,0,1,1-.26.05Z" transform="translate(-2.51 -41.16)"></path><path class="cls-63" d="M138.49,168.87l.18,0,.17.84a.1.1,0,0,1-.07.11.09.09,0,0,1-.11-.08Z" transform="translate(-2.51 -41.16)"></path></g><g class="cls-52"><path class="cls-63" d="M139.08,168.75l.27-.05.35,1.73a.14.14,0,0,1-.11.16.14.14,0,0,1-.16-.11Z" transform="translate(-2.51 -41.16)"></path><path class="cls-63" d="M139.72,168.62l.18,0,.17.84a.1.1,0,0,1-.07.11.09.09,0,0,1-.11-.08Z" transform="translate(-2.51 -41.16)"></path></g><g class="cls-52"><path class="cls-63" d="M140.3,168.51l.27-.05.35,1.73a.14.14,0,0,1-.11.16.14.14,0,0,1-.16-.11Z" transform="translate(-2.51 -41.16)"></path><path class="cls-63" d="M140.94,168.38l.18,0,.17.84a.09.09,0,0,1-.07.11.1.1,0,0,1-.11-.07Z" transform="translate(-2.51 -41.16)"></path></g><g class="cls-52"><path class="cls-63" d="M141.53,168.26l.27-.05.35,1.73a.14.14,0,1,1-.27.05Z" transform="translate(-2.51 -41.16)"></path><path class="cls-63" d="M142.17,168.13l.18,0,.17.84a.09.09,0,0,1-.07.11.1.1,0,0,1-.11-.07Z" transform="translate(-2.51 -41.16)"></path></g><g class="cls-52"><path class="cls-63" d="M142.75,168,143,168l.35,1.73a.14.14,0,0,1-.1.16.14.14,0,0,1-.16-.11Z" transform="translate(-2.51 -41.16)"></path><path class="cls-63" d="M143.39,167.88l.19,0,.17.84a.1.1,0,1,1-.19,0Z" transform="translate(-2.51 -41.16)"></path></g><g class="cls-52"><path class="cls-63" d="M144,167.76l.26-.05.35,1.73a.13.13,0,1,1-.26.05Z" transform="translate(-2.51 -41.16)"></path><path class="cls-63" d="M144.62,167.63l.19,0,.17.84a.1.1,0,0,1-.19,0Z" transform="translate(-2.51 -41.16)"></path></g><g class="cls-52"><path class="cls-63" d="M145.21,167.52l.26-.05.35,1.72a.13.13,0,1,1-.26.05Z" transform="translate(-2.51 -41.16)"></path><path class="cls-63" d="M145.85,167.39l.19,0,.17.84a.1.1,0,0,1-.19,0Z" transform="translate(-2.51 -41.16)"></path></g><g class="cls-52"><path class="cls-63" d="M146.44,167.27l.26-.05.35,1.72a.13.13,0,1,1-.26.05Z" transform="translate(-2.51 -41.16)"></path><path class="cls-63" d="M147.07,167.14l.19,0,.17.84a.1.1,0,1,1-.19,0Z" transform="translate(-2.51 -41.16)"></path></g><g class="cls-52"><path class="cls-63" d="M147.66,167l.26-.05.35,1.72a.13.13,0,1,1-.26.05Z" transform="translate(-2.51 -41.16)"></path><path class="cls-63" d="M148.3,166.9l.19,0,.17.84a.1.1,0,0,1-.19,0Z" transform="translate(-2.51 -41.16)"></path></g><g class="cls-52"><path class="cls-63" d="M148.89,166.78l.26-.05.35,1.72a.13.13,0,1,1-.26.05Z" transform="translate(-2.51 -41.16)"></path><path class="cls-63" d="M149.53,166.65l.18,0,.17.84a.1.1,0,0,1-.07.11.09.09,0,0,1-.11-.08Z" transform="translate(-2.51 -41.16)"></path></g><path class="cls-64" d="M88.85,176.77c-1.22,9.36,2.63,18.8,6.51,16.2,6.09-4.09,15.13-17.5,16-17.54a24.3,24.3,0,0,0,2.45.31,13.12,13.12,0,0,0,2.65-.4c.15,0,.33-.11.33-.27a.31.31,0,0,0-.15-.23,1.85,1.85,0,0,0-1.07-.27c-.31,0-.71,0-.79-.35a.47.47,0,0,1,.2-.48,1.38,1.38,0,0,1,.51-.2c1-.25,2.16-.47,3.12-.72-.59-.18-1.42-.37-2-.51a7.7,7.7,0,0,0-1.36-.23,18.19,18.19,0,0,0-2.84.11,8.7,8.7,0,0,0-3,1.14,12.41,12.41,0,0,0-2,1.36c-1.64,1.29-7.89,8.6-9.25,9.62" transform="translate(-2.51 -41.16)"></path><path class="cls-64" d="M125.62,208.22a43,43,0,0,0-2.87,10.06c-.66,4.57,1.89,11.86,1.6,17.17a17.43,17.43,0,0,1-.63,4.26c-.49.91-1.58,1.92-1.69,3.14a1.88,1.88,0,0,0,1.21,1.83c.85.39,1.41-.06,1.72,0,1.77.15,2.11,1.43,5.15,1.82a4.86,4.86,0,0,0,3.18-.87.65.65,0,0,0,.12-.9c-.18-.26-2.44-.93-3.46-1.52a6.25,6.25,0,0,1-2.21-2.72,26.1,26.1,0,0,1,.46-4.82c1.31-8.56,2.93-20.61,3.8-25.6" transform="translate(-2.51 -41.16)"></path><path class="cls-4" d="M133.55,245.78c.22-.37.26-.92.06-1a17.57,17.57,0,0,0-1.91-1c-.59-.24-1.53-.44-1.2-.28s-.26.81-.82.8c-1.91-.05-3.33-1.22-4.42-1.45a2.92,2.92,0,0,1-2-2.32,7.34,7.34,0,0,0-1.4,2,3.46,3.46,0,0,0-.21,1.57,3.47,3.47,0,0,1,.2,1.49,3,3,0,0,0,1.13.35,4.65,4.65,0,0,0,1.21,0l.12-.94a4.64,4.64,0,0,1,1,.06,3.22,3.22,0,0,1,1.48.75c.23.23.46.59.76.71a6.44,6.44,0,0,0,2.45.5C132,247,133.18,246.41,133.55,245.78Z" transform="translate(-2.51 -41.16)"></path><path class="cls-64" d="M99.64,196.85l-13.8,7.89s.87,5.18,7.12,6.52c3.63.78,9.32-.26,10.82-.18s25.32.93,25.32.93,2.37.52,2.79-1.34c.66-2.92,0-3.84-2-5.14C126.62,203.34,114,199.19,99.64,196.85Z" transform="translate(-2.51 -41.16)"></path><path class="cls-65" d="M125.35,210.07a43,43,0,0,0,0,10.46c.63,4.57,5.34,12.21,6.53,17.4a17.44,17.44,0,0,1,.58,4.27c-.22,1-1,2.28-.76,3.48a1.88,1.88,0,0,0,1.67,1.42c.93.14,1.34-.45,1.64-.51,1.75-.34,2.42.79,5.45.32a4.86,4.86,0,0,0,2.82-1.72.65.65,0,0,0-.14-.9c-.25-.2-2.6-.22-3.74-.51a6.25,6.25,0,0,1-2.87-2,26.11,26.11,0,0,1-.89-4.76c-1.1-8.59-3.27-23.06-3.81-28.1" transform="translate(-2.51 -41.16)"></path><path class="cls-4" d="M143.59,245.33c.11-.41,0-1-.24-1a17.57,17.57,0,0,0-2.12-.46c-.64-.07-1.59,0-1.23.06s0,.86-.56,1c-1.85.47-3.54-.26-4.65-.17a2.92,2.92,0,0,1-2.58-1.67,7.34,7.34,0,0,0-.78,2.35,3.46,3.46,0,0,0,.23,1.57,3.47,3.47,0,0,1,.6,1.38,3,3,0,0,0,1.19,0,4.65,4.65,0,0,0,1.16-.35l-.14-.94a4.64,4.64,0,0,1,.95-.21,3.22,3.22,0,0,1,1.63.31,2.91,2.91,0,0,0,.92.47,6.44,6.44,0,0,0,2.49-.19C142.44,246.95,143.41,246,143.59,245.33Z" transform="translate(-2.51 -41.16)"></path><path class="cls-65" d="M99.92,197.83l-13.8,7.89s.55,5,6.8,6.36c3.63.77,9.64-.1,11.15,0s25.32.93,25.32.93,2.33.5,2.45-1.41c.16-2.54.35-3.78-1.61-5.08C126.9,204.32,114.27,200.17,99.92,197.83Z" transform="translate(-2.51 -41.16)"></path><path class="cls-4" d="M88.79,193.45s-4.32,8.41-3.22,12,3.21,7,9.14,7,20.79,0,20.79,0a22.3,22.3,0,0,1,1.82-6.29,18.39,18.39,0,0,1,3.42-4.3s-15.08-4.65-16.12-5.64a13.39,13.39,0,0,1-2.07-3.22" transform="translate(-2.51 -41.16)"></path><path class="cls-38" d="M91.3,166.22a29.51,29.51,0,0,0-3.14,11.91,36.33,36.33,0,0,0,6,.85" transform="translate(-2.51 -41.16)"></path><path class="cls-38" d="M102.81,163.06c.79.26.5,2.15,1.29,2.41.57.19,1.7-.06,2.22.23,2.79,1.57,2.07,4.71,2.41,8.6,1.18,3,1.5,5.69.55,7.36-1.17,2.07-2.4,2.65-3.84,4.37-1.07,1.28-1.42,3.92-1.64,6.75,0,.49.37,1.34.25,1.82-.23.91-1.61,1.19-3.15,1.22-3.55.07-8.93-1.22-10.51-1.16s-2.9-.67-2.75-1.55c.1-.61.72-.87,1-2.06.54-2.62.95-9.16,1.36-11.38,1.07-5.68,1.85-9.91,4.18-15.14" transform="translate(-2.51 -41.16)"></path><path class="cls-62" d="M110.87,176.68a26.56,26.56,0,0,0-3.22-4.22l-3,1.36c1.43,2.73,1.69,6,2.34,8.95a7.07,7.07,0,0,0,1.75-.17c.29-.48.18-.24.58-.94A12.26,12.26,0,0,0,110.87,176.68Z" transform="translate(-2.51 -41.16)"></path><path class="cls-65" d="M112.94,155.39a15.13,15.13,0,0,0,.52-3.92c-.09-2.25-.37-5.52-4.12-6.86s-7.88-.54-9.11,2.17-.94,6.79-1.12,9a13.49,13.49,0,0,1-1.78,4.8L105.4,164s1.32-2.87,1.86-3.21.73,1,2.53.87c.76-.06,1.58-1.43,2.19-3.12l.06-.17a8.44,8.44,0,0,0,1-.08c.56-.17.51-.41.39-.77A9.14,9.14,0,0,1,112.94,155.39Z" transform="translate(-2.51 -41.16)"></path><path class="cls-65" d="M126.05,199.67a4.32,4.32,0,0,0,2.64,2.32,1.44,1.44,0,0,0,.93-.18c.46.12,1.86.05,1.22-.67a4,4,0,0,0,3.07.16c.37-.08.28-.51-.56-.6a4.13,4.13,0,0,1-2.87-1.72c.15-.16.32.06.79.06s.75-.27.73-.5-.66-.27-.8-.33l-1.68-.76a2.94,2.94,0,0,0-1.69-.33c-.11,0-1.19.25-.86.61" transform="translate(-2.51 -41.16)"></path><path class="cls-65" d="M107.2,178.23s4.23,11.41,5,12.34c2.9,3.67,14.3,9.45,14.3,9.45a2.23,2.23,0,0,0,1.42-2.49c-3.51-1.54-10-8.64-11.4-9.51-.92-.56-5-14.51-5-14.51" transform="translate(-2.51 -41.16)"></path><path class="cls-38" d="M108.93,165.55c-3.07-1.17-6-1.18-8.34-3.52-2.38,1.83,2.88,12.43,4.18,12.71s3.06,6.14,3.39,6.94c4.24-.11,5.8-2.43,5.8-2.43C112.21,173.92,111.9,166.68,108.93,165.55Z" transform="translate(-2.51 -41.16)"></path><path class="cls-4" d="M106.47,165.83c-.21-.8-.81-1.43-.95-2.25a3.67,3.67,0,0,1,.45-2.42,4.42,4.42,0,0,1,1-1c1.69-1.33,2.27-2.43,1.71-4.42a5.41,5.41,0,0,1-.29-2c.06-.61.19-1.25.84-1.32.46-.05.75.06.91.44s-.11,2.2.53,1.11,1.16-1.13,1.13-3.54c0-.29-.1-1.45.08-1.62a4.6,4.6,0,0,1,1.58,3.24,2.35,2.35,0,0,0,1.08-2,5.38,5.38,0,0,0-.44-2.42c-1.46-3.14-3-3.72-4.33-4.28a9.73,9.73,0,0,0-4-1.05c-1.38,0-3.09.45-3.49,1.48-1.91-.49-3,1.18-3.46,1.78a9.73,9.73,0,0,0-1.48,2.85c-.49,1.51-.6,3.12-1,4.66a6.79,6.79,0,0,1-1.82,3.43c-.93.84-2.24.92-3.25,1.69a5.09,5.09,0,0,0-1.93,4.23c.07,1.62.9,3.36-.08,4.85-.32.48-.76.87-1.08,1.35a3.68,3.68,0,0,0,.07,3.8,6.75,6.75,0,0,0,3.3,2.82,9.67,9.67,0,0,0,3.56.49c2.32-.13,4.28,0,6.74-2.1,1.39-1.19.5-1.87,1.84-3.13.75-.71,1.81-1.08,2.36-2a3.58,3.58,0,0,0,.36-2.57Z" transform="translate(-2.51 -41.16)"></path><polygon class="cls-66" points="175.57 32.17 154.83 53.65 155.06 46.24 175.57 32.17"></polygon><polygon class="cls-38" points="144.28 42.62 166.05 51.58 175.57 32.17 144.28 42.62"></polygon><polygon class="cls-67" points="175.57 32.17 152.12 45.85 154.83 53.65 156.67 47.72 175.57 32.17"></polygon><line class="cls-68" x1="291.54" y1="67.52" x2="333.28" y2="109.26"></line><path class="cls-38" d="M337.73,126.67,316.12,130l16.64-18a4.88,4.88,0,1,0,0-6.94,4.88,4.88,0,0,0,0,6.94l0,0L315.29,129.2s2.55-14.93,3.41-22.34C324.1,104.34,339,96.12,343.2,93l1.36-1s-3.19-2.83,8.67,9c-.33.39-.69.84-1.06,1.31C346.51,109.5,337.73,126.67,337.73,126.67Z" transform="translate(-2.51 -41.16)"></path><path class="cls-67" d="M361.09,100.92l-3.63,3.63a1.74,1.74,0,0,1-2.46,0L340.43,90a1.73,1.73,0,0,1-.08-2.37l.08-.09,3.63-3.63a1.74,1.74,0,0,1,2.46,0l14.58,14.58A1.74,1.74,0,0,1,361.09,100.92Z" transform="translate(-2.51 -41.16)"></path><path class="cls-69" d="M361.09,100.92l-3.63,3.63a1.74,1.74,0,0,1-2.46,0L340.43,90a1.73,1.73,0,0,1-.08-2.37c11.31,12.73,15.2,8.24,16.2,6.32l4.54,4.54A1.74,1.74,0,0,1,361.09,100.92Z" transform="translate(-2.51 -41.16)"></path><path class="cls-68" d="M350.06,127.58c-10.23,10.23-25.79,11.27-34.75,2.31s-7.92-24.52,2.31-34.75" transform="translate(-2.51 -41.16)"></path><circle class="cls-67" cx="294.05" cy="108.68" r="1.98" transform="translate(6.76 198.59) rotate(-45)"></circle><circle class="cls-67" cx="317.6" cy="95.31" r="1.98" transform="translate(23.12 211.33) rotate(-45)"></circle><circle class="cls-67" cx="349.75" cy="127.57" r="1.98" transform="translate(9.72 243.51) rotate(-45)"></circle><circle class="cls-67" cx="335.79" cy="150.42" r="1.98" transform="translate(-10.52 240.33) rotate(-45)"></circle><line class="cls-70" x1="247.25" y1="1.49" x2="247.25" y2="45.49"></line><line class="cls-70" x1="301.92" y1="14.1" x2="278.8" y2="51.54"></line><line class="cls-70" x1="192.59" y1="14.1" x2="215.7" y2="51.54"></line><rect class="cls-68" x="46.86" y="228.79" width="8.94" height="8.94" transform="translate(-81.55 -8.02) rotate(-20.67)"></rect><circle class="cls-68" cx="54.52" cy="227.38" r="5.06" transform="translate(-79.27 -7.28) rotate(-20.67)"></circle><path class="cls-67" d="M373.36,149.46l.19-1.89L371,146.51,369.78,148l-1.61-.67,5.43-6,1.83.76-.45,8.11Zm.35-3.29q.24-2.57.27-2.91c0-.22,0-.4.07-.52q-.42.55-2.18,2.67Z" transform="translate(-2.51 -41.16)"></path><line class="cls-71" x1="377.91" y1="103.29" x2="375.22" y2="109.76"></line><line class="cls-71" x1="373.65" y1="109.11" x2="376.78" y2="110.41"></line><line class="cls-71" x1="376.34" y1="102.64" x2="379.48" y2="103.95"></line><line class="cls-71" x1="376.02" y1="99.55" x2="369.55" y2="96.86"></line><line class="cls-71" x1="370.2" y1="95.29" x2="368.9" y2="98.42"></line><line class="cls-71" x1="376.67" y1="97.98" x2="375.37" y2="101.11"></line><rect class="cls-72" x="70.13" y="308.59" width="31.4" height="31.4" rx="6.63" ry="6.63" transform="translate(-194.03 94.43) rotate(-40.95)"></rect><path class="cls-73" d="M78.24,319.89c.53-.46,1.07-.91,1.58-1.38a.56.56,0,0,1,.75-.1c.85.53,1.68,1.08,2.53,1.61s1.74,1.05,2.6,1.58c.62.38,1.22.78,1.84,1.17l1.81,1.12,1.89,1.18L93,326.14c.8.49,1.6,1,2.39,1.46.06,0,0,.33,0,.41-.44.42-.9.8-1.36,1.2l-1.29,1.12a.42.42,0,0,1-.6,0c-.92-.6-1.86-1.16-2.79-1.74a2,2,0,0,1-.27-.21.57.57,0,0,0-.86,0q-1.54,1.36-3.1,2.69a.39.39,0,0,0-.1.58q.74,1.5,1.39,3c.35.82.32.83-.36,1.43s-1.31,1.13-2,1.7c-.27.24-.45.22-.59-.11-.29-.67-.58-1.33-.87-2s-.63-1.38-.94-2.07l-.84-1.9-1.29-2.92L78.25,326,77,323.18c-.16-.35-.33-.7-.48-1.06a.67.67,0,0,1,.24-.92c.53-.4,1-.87,1.52-1.3Zm2,2.44c0,.09,0,.15,0,.18l.94,1.91c.41.82.81,1.65,1.23,2.47.23.46.48.92.72,1.38.13.26.3.26.5.08l2.25-2c.2-.17.2-.3-.06-.44s-.76-.43-1.12-.67l-3.57-2.42C80.79,322.68,80.5,322.52,80.2,322.33Z" transform="translate(-2.51 -41.16)"></path><path class="cls-73" d="M95.63,319.48c1.25,1.44,2.49,2.88,3.75,4.31.26.3.28.48,0,.75-.76.62-1.49,1.27-2.21,1.92-.3.27-.49.24-.76-.06q-3.72-4.31-7.46-8.6c-.46-.53-.45-.55.07-1,.68-.59,1.37-1.16,2-1.77.33-.31.53-.29.83.05,1.26,1.48,2.53,2.93,3.8,4.4Z" transform="translate(-2.51 -41.16)"></path><path class="cls-73" d="M86.38,311.85a2,2,0,0,1,2.9.15,1.87,1.87,0,0,1-.32,2.84,1.93,1.93,0,0,1-2.9-.14A2,2,0,0,1,86.38,311.85Z" transform="translate(-2.51 -41.16)"></path><path class="cls-67" d="M132.36,143.3l1.3-.22-.22-1.3,1.29-.22.95,5.59,2.43-3.49-2.44.41-.22-1.31.1,0,3.6-.61a.23.23,0,0,0,.16-.1l1-1.44,0-.09.65.45L141,141l-1,1.44a.2.2,0,0,0,0,.16l.61,3.61,0,.11-1.3.22-.42-2.47-2.5,3.45,0,0,5.56-.94.22,1.29-1.28.22.22,1.32-1.31.22-.22-1.31-4.83.82-.81-4.81-1.3.22Z" transform="translate(-2.51 -41.16)"></path><path class="cls-67" d="M436.36,241.33l.69-1.58-1.58-.69.68-1.57,6.82,3-2.09-5.16-1.29,3-1.59-.69.06-.13,1.91-4.38a.3.3,0,0,0,0-.25l-.85-2.16-.06-.11,1-.39a.78.78,0,0,0,0,.14l.85,2.16a.26.26,0,0,0,.15.16l4.4,1.91.14.06-.69,1.59-3-1.31,2,5.21h0l2.94-6.78,1.57.68-.68,1.56,1.61.7-.69,1.59-1.6-.7L444.51,243l-5.86-2.55L438,242Z" transform="translate(-2.51 -41.16)"></path><rect class="cls-74" x="400.81" y="286.85" width="27.43" height="27.43" rx="5.79" ry="5.79" transform="translate(-82.45 392.34) rotate(-50.99)"></rect><path class="cls-75" d="M411.83,289.22a21.11,21.11,0,0,1,5.34,4.29,4.23,4.23,0,0,1,.38,5,4.57,4.57,0,0,1-4.92,2.19,7.6,7.6,0,0,1-3.31-1.75l-.76-.62-3.2,4-2.5-2Zm-1.62,7.16a4.61,4.61,0,0,0,2.17,1.45,2.18,2.18,0,0,0,2.44-1.06,1.88,1.88,0,0,0-.28-2.4,17.47,17.47,0,0,0-1.62-1.33Z" transform="translate(-2.51 -41.16)"></path><path class="cls-75" d="M423.16,303.8l-1.76,1.3c-.43-.56-.82-1.11-1.26-1.61a1.66,1.66,0,0,0-.75-.52,1,1,0,0,0-.84.12,1,1,0,0,0-.18.81,8.47,8.47,0,0,0,.61,1.24,10.41,10.41,0,0,1,.7,1.52,3,3,0,0,1-3.31,3.92,5.72,5.72,0,0,1-3.42-1.83c-.63-.64-1.15-1.39-1.77-2.15l1.88-1.44c.67.8,1.29,1.58,2,2.32a1.12,1.12,0,0,0,.65.36,1,1,0,0,0,.78-.18,1.06,1.06,0,0,0,.21-.82,4.44,4.44,0,0,0-.48-1,13.5,13.5,0,0,1-.82-1.72,2.93,2.93,0,0,1,3-3.91A6.23,6.23,0,0,1,423.16,303.8Z" transform="translate(-2.51 -41.16)"></path></g></g></svg>